<?xml version="1.0" encoding="utf-8"?>
<!-- Generator: Adobe Illustrator 25.3.0, SVG Export Plug-In . SVG Version: 6.00 Build 0)  -->
<svg version="1.1" id="Layer_1" xmlns="http://www.w3.org/2000/svg" xmlns:xlink="http://www.w3.org/1999/xlink" x="0px" y="0px"
	 viewBox="0 0 396 288" style="enable-background:new 0 0 396 288;" xml:space="preserve">
<style type="text/css">
	.st0{fill:url(#SVGID_2_);}
	.st1{opacity:5.000000e-02;clip-path:url(#SVGID_4_);}
	.st2{fill:#202F4E;}
	.st3{opacity:2.500000e-02;clip-path:url(#SVGID_6_);}
	.st4{fill:#03A9DE;}
</style>
<g>
	<g>
		<g>
			
				<linearGradient id="SVGID_2_" gradientUnits="userSpaceOnUse" x1="113.6114" y1="537.0157" x2="309.6115" y2="906.0157" gradientTransform="matrix(1 0 0 1 0 -551.89)">
				<stop  offset="0" style="stop-color:#FFFFFF"/>
				<stop  offset="1" style="stop-color:#F0F7FC"/>
			</linearGradient>
			<rect id="SVGID_1_" y="0" class="st0" width="396" height="288"/>
		</g>
		<g>
			<g>
				<defs>
					<rect id="SVGID_3_" y="0" width="396" height="288"/>
				</defs>
				<clipPath id="SVGID_4_">
					<use xlink:href="#SVGID_3_"  style="overflow:visible;"/>
				</clipPath>
				<g class="st1">
					<g>
						<g>
							<g>
								<path class="st2" d="M230,58.1L230,58.1l-22.3-12.9V19.4l0,0L230,6.5l0,0l22.3,12.9v25.8l0,0L230,58.1z M207.9,45.1
									L230,57.9l22.1-12.8V19.5L230,6.8l-22.1,12.8V45.1z"/>
							</g>
							<g>
								<path class="st2" d="M274.5,58.1L274.5,58.1l-22.3-12.9V19.4l0,0l22.3-12.9l0,0l22.3,12.9v25.8l0,0L274.5,58.1z M252.3,45.1
									l22.1,12.8l22.1-12.8V19.5l-22-12.7l-22.1,12.8L252.3,45.1L252.3,45.1z"/>
							</g>
							<g>
								<path class="st2" d="M318.9,58.1L318.9,58.1l-22.3-12.9V19.4l0,0l22.3-12.9l0,0l22.3,12.9v25.8l0,0L318.9,58.1z M296.8,45.1
									l22.1,12.8L341,45.1V19.5L318.9,6.8l-22.1,12.8V45.1z"/>
							</g>
							<g>
								<path class="st2" d="M363.4,58.1L363.4,58.1l-22.3-12.9V19.4l0,0l22.3-12.9l0,0l22.3,12.9v25.8l0,0L363.4,58.1z M341.2,45.1
									l22.1,12.8l22.1-12.8V19.5l-22-12.7l-22.1,12.8L341.2,45.1L341.2,45.1z"/>
							</g>
							<g>
								<polygon class="st2" points="413.3,54.7 407.8,57.9 385.7,45.1 385.7,19.5 407.8,6.8 413.3,9.9 413.3,9.7 407.9,6.6 
									407.8,6.5 385.6,19.4 385.5,19.4 385.5,45.2 407.8,58.1 407.8,58.1 413.3,55 								"/>
							</g>
							<g>
								<path class="st2" d="M29.9,96.6L29.9,96.6L7.6,83.7V57.9l0,0L29.9,45l0,0l22.3,12.9v25.8l0,0L29.9,96.6z M7.8,83.6
									l22.1,12.8L52,83.6V58.1L29.9,45.3L7.8,58.1V83.6z"/>
							</g>
							<g>
								<path class="st2" d="M252.2,96.6L252.2,96.6l-22.3-12.9V57.9l0,0L252.2,45l0,0l22.3,12.9v25.8l0,0L252.2,96.6z M230.1,83.6
									l22.1,12.8l22.1-12.8V58.1l-22.1-12.8l-22.1,12.8V83.6z"/>
							</g>
							<g>
								<path class="st2" d="M296.7,96.6L296.7,96.6l-22.3-12.9V57.9l0,0L296.7,45l0,0L319,57.9v25.8l0,0L296.7,96.6z M274.6,83.6
									l22.1,12.8l22.1-12.8V58.1l-22.1-12.8l-22.1,12.8V83.6z"/>
							</g>
							<g>
								<path class="st2" d="M341.1,96.6L341.1,96.6l-22.3-12.9V57.9l0,0L341.1,45l0,0l22.3,12.9v25.8l0,0L341.1,96.6z M319,83.6
									l22.1,12.8l22.1-12.8V58.1l-22.1-12.8L319,58.1V83.6z"/>
							</g>
							<g>
								<path class="st2" d="M385.6,96.6L385.6,96.6l-22.3-12.9V57.9l0,0L385.6,45l0,0l22.3,12.9v25.8l0,0L385.6,96.6z M363.5,83.6
									l22.1,12.8l22.1-12.8V58.1l-22.1-12.8l-22.1,12.8V83.6z"/>
							</g>
							<g>
								<path class="st2" d="M318.9,135.1L318.9,135.1l-22.3-12.9V96.4l0,0l22.3-12.9l0,0l22.3,12.9v25.8l0,0L318.9,135.1z
									 M296.8,122.1l22.1,12.8l22.1-12.8V96.6l-22.1-12.8l-22.1,12.8V122.1z"/>
							</g>
							<g>
								<path class="st2" d="M363.4,135.1L363.4,135.1l-22.3-12.9V96.4l0,0l22.3-12.9l0,0l22.3,12.9v25.8l0,0L363.4,135.1z
									 M341.2,122.1l22.1,12.8l22.1-12.8V96.6l-22.1-12.8l-22.1,12.8V122.1z"/>
							</g>
							<g>
								<polygon class="st2" points="413.3,131.7 407.8,134.9 385.7,122.1 385.7,96.6 407.8,83.8 413.3,86.9 413.3,86.7 407.9,83.6 
									407.8,83.6 385.6,96.4 385.5,96.4 385.5,122.2 407.8,135.1 407.8,135.1 413.3,132 								"/>
							</g>
							<g>
								<path class="st2" d="M341.1,173.6L341.1,173.6l-22.3-12.9V135l0,0l22.3-12.9l0,0l22.3,12.9v25.8l0,0L341.1,173.6z
									 M319,160.6l22.1,12.8l22.1-12.8V135l-22.1-12.8L319,135.1V160.6z"/>
							</g>
							<g>
								<path class="st2" d="M385.6,173.6L385.6,173.6l-22.3-12.9V135l0,0l22.3-12.9l0,0l22.3,12.9v25.8l0,0L385.6,173.6z
									 M363.5,160.6l22.1,12.8l22.1-12.8V135l-22.1-12.8L363.5,135V160.6z"/>
							</g>
							<g>
								<path class="st2" d="M52.1,212.1L52.1,212.1l-22.3-12.9v-25.8l0,0l22.3-12.9l0,0l22.3,12.9v25.8l0,0L52.1,212.1z M30,199.1
									l22.1,12.8l22.1-12.8v-25.6l-22.1-12.8L30,173.6V199.1z"/>
							</g>
							<g>
								<path class="st2" d="M363.4,212.1L363.4,212.1l-22.3-12.9v-25.8l0,0l22.3-12.9l0,0l22.3,12.9v25.8l0,0L363.4,212.1z
									 M341.2,199.1l22.1,12.8l22.1-12.8v-25.6l-22.1-12.8l-22.1,12.8V199.1z"/>
							</g>
							<g>
								<polygon class="st2" points="413.3,208.8 407.8,211.9 385.7,199.1 385.7,173.6 407.8,160.8 413.3,163.9 413.3,163.7 
									407.9,160.6 407.8,160.6 385.6,173.4 385.5,173.5 385.5,199.2 407.8,212.1 407.8,212.1 413.3,209 								"/>
							</g>
							<g>
								<path class="st2" d="M29.9,250.6L29.9,250.6L7.6,237.7V212l0,0l22.3-12.9l0,0L52.2,212v25.8l0,0L29.9,250.6z M7.8,237.6
									l22.1,12.8L52,237.6V212l-22.1-12.8L7.8,212.1V237.6z"/>
							</g>
							<g>
								<path class="st2" d="M74.4,250.6L74.4,250.6L52,237.7V212l0,0l22.3-12.9l0,0L96.7,212v25.8l0,0L74.4,250.6z M52.2,237.6
									l22.1,12.8l22.1-12.8V212l-22.1-12.8L52.2,212V237.6z"/>
							</g>
							<g>
								<path class="st2" d="M118.8,250.6L118.8,250.6l-22.3-12.9V212l0,0l22.3-12.9l0,0l22.3,12.9v25.8l0,0L118.8,250.6z
									 M96.7,237.6l22.1,12.8l22.1-12.8V212l-22.1-12.8L96.7,212V237.6z"/>
							</g>
							<g>
								<path class="st2" d="M163.3,250.6L163.3,250.6L141,237.7V212l0,0l22.3-12.9l0,0l22.3,12.9v25.8l0,0L163.3,250.6z
									 M141.2,237.6l22.1,12.8l22.1-12.8V212l-22.1-12.8L141.2,212V237.6z"/>
							</g>
							<g>
								<path class="st2" d="M52.1,289.1L52.1,289.1l-22.3-12.9v-25.8l0,0l22.3-12.9l0,0l22.3,12.9v25.8l0,0L52.1,289.1z M30,276.1
									l22.1,12.8l22.1-12.8v-25.6l-22.1-12.8L30,250.6V276.1z"/>
							</g>
							<g>
								<path class="st2" d="M96.6,289.1L96.6,289.1l-22.3-12.9v-25.8l0,0l22.3-12.9l0,0l22.3,12.9v25.8l0,0L96.6,289.1z
									 M74.5,276.1l22.1,12.8l22.1-12.8v-25.6l-22.1-12.8l-22.1,12.8V276.1z"/>
							</g>
							<g>
								<path class="st2" d="M141.1,289.1L141.1,289.1l-22.3-12.9v-25.8l0,0l22.3-12.9l0,0l22.3,12.9v25.8l0,0L141.1,289.1z
									 M118.9,276.1l22.1,12.8l22.1-12.8v-25.6L141,237.7l-22.1,12.8V276.1z"/>
							</g>
							<g>
								<polygon class="st2" points="7.8,303.5 7.8,289.1 29.9,276.3 52,289.1 52,303.5 52.2,303.5 52.2,289 30,276.1 29.9,276.1 
									7.6,288.9 7.6,289 7.6,303.5 								"/>
							</g>
							<g>
								<polygon class="st2" points="52.2,303.5 52.2,289.1 74.4,276.3 96.5,289.1 96.5,303.5 96.7,303.5 96.7,289 74.4,276.1 
									74.4,276.1 52.1,288.9 52,289 52,303.5 								"/>
							</g>
							<g>
								<polygon class="st2" points="96.7,303.5 96.7,289.1 118.8,276.3 141,289.1 141,303.5 141.2,303.5 141.2,289 118.9,276.1 
									118.8,276.1 96.6,288.9 96.5,289 96.5,303.5 								"/>
							</g>
							<g>
								<polygon class="st2" points="141.2,303.5 141.2,289.1 163.3,276.3 185.4,289.1 185.4,303.5 185.6,303.5 185.6,289 
									163.3,276.1 163.3,276.1 141,288.9 141,289 141,303.5 								"/>
							</g>
							<g>
								<polygon class="st2" points="319,303.5 319,289.1 341.1,276.3 363.3,289.1 363.3,303.5 363.5,303.5 363.5,289 341.2,276.1 
									341.1,276.1 318.9,288.9 318.8,289 318.8,303.5 								"/>
							</g>
							<g>
								<polygon class="st2" points="363.5,303.5 363.5,289.1 385.6,276.3 407.7,289.1 407.7,303.5 407.9,303.5 407.9,289 
									385.7,276.1 385.6,276.1 363.3,288.9 363.3,289 363.3,303.5 								"/>
							</g>
						</g>
						<g>
							<g>
								<polygon class="st2" points="312.1,-34.7 312.1,-12.8 283.6,3.6 255.2,-12.8 255.2,-34.7 254.2,-34.7 254.2,-12.3 
									283.6,4.7 313.1,-12.3 313.1,-34.7 								"/>
							</g>
							<g>
								<polygon class="st2" points="370.1,-34.7 370.1,-12.8 341.6,3.6 313.1,-12.8 313.1,-34.7 312.1,-34.7 312.1,-12.3 
									341.6,4.7 371.1,-12.3 371.1,-34.7 								"/>
							</g>
							<g>
								<polygon class="st2" points="371.1,-12.8 371.1,-34.7 370.1,-34.7 370.1,-12.3 399.5,4.7 413.3,-3.2 413.3,-4.4 399.5,3.6 
																	"/>
							</g>
							<g>
								<path class="st2" d="M312.6,54.9l-29.5-17v-34l29.5-17l29.5,17v34L312.6,54.9z M284.1,37.3l28.5,16.4l28.5-16.4V4.5
									L312.6-12L284.1,4.5V37.3z"/>
							</g>
							<g>
								<path class="st2" d="M370.6,54.9l-29.5-17v-34l29.5-17l29.5,17v34L370.6,54.9z M342.1,37.3l28.5,16.4L399,37.3V4.5L370.6-12
									L342.1,4.5V37.3z"/>
							</g>
							<g>
								<path class="st2" d="M341.6,105.1l-29.5-17v-34l29.5-17l29.5,17v34L341.6,105.1z M313.1,87.5l28.5,16.4l28.5-16.4V54.6
									l-28.5-16.4l-28.5,16.4V87.5z"/>
							</g>
							<g>
								<polygon class="st2" points="413.3,96 399.5,104 371.1,87.5 371.1,54.6 399.5,38.2 413.3,46.2 413.3,45 399.5,37 
									370.1,54.1 370.1,88.1 399.5,105.1 413.3,97.2 								"/>
							</g>
							<g>
								<path class="st2" d="M22.9,155.3l-29.5-17v-34l29.5-17l29.5,17v34L22.9,155.3z M-5.6,137.7l28.5,16.4l28.5-16.4v-32.9
									L22.9,88.4l-28.5,16.4C-5.6,104.8-5.6,137.7-5.6,137.7z"/>
							</g>
							<g>
								<path class="st2" d="M80.8,155.3l-29.5-17v-34l29.5-17l29.5,17v34L80.8,155.3z M52.4,137.7l28.5,16.4l28.5-16.4v-32.9
									L80.8,88.4l-28.5,16.4L52.4,137.7L52.4,137.7z"/>
							</g>
							<g>
								<polygon class="st2" points="-6.1,137.4 -20.1,145.5 -20.1,146.7 -6.1,138.6 22.4,155 22.4,187.9 -6.1,204.3 -20.1,196.2 
									-20.1,197.4 -6.1,205.5 23.4,188.5 23.4,154.4 								"/>
							</g>
							<g>
								<path class="st2" d="M51.9,205.5l-29.5-17v-34l29.5-17l29.5,17v34L51.9,205.5z M23.4,187.9l28.5,16.4l28.5-16.4V155
									l-28.5-16.4L23.4,155V187.9z"/>
							</g>
							<g>
								<path class="st2" d="M109.8,205.5l-29.5-17v-34l29.5-17l29.5,17v34L109.8,205.5z M81.3,187.9l28.5,16.4l28.5-16.4V155
									l-28.5-16.4L81.3,155V187.9z"/>
							</g>
							<g>
								<path class="st2" d="M22.9,255.7l-29.5-17v-34l29.5-17l29.5,17v34L22.9,255.7z M-5.6,238.1l28.5,16.4l28.5-16.4v-32.9
									l-28.5-16.4l-28.5,16.4C-5.6,205.2-5.6,238.1-5.6,238.1z"/>
							</g>
							<g>
								<path class="st2" d="M80.8,255.7l-29.5-17v-34l29.5-17l29.5,17v34L80.8,255.7z M52.4,238.1l28.5,16.4l28.5-16.4v-32.9
									l-28.5-16.4l-28.5,16.4V238.1z"/>
							</g>
							<g>
								<path class="st2" d="M370.6,255.7l-29.5-17v-34l29.5-17l29.5,17v34L370.6,255.7z M342.1,238.1l28.5,16.4l28.5-16.4v-32.9
									l-28.5-16.4l-28.5,16.4V238.1z"/>
							</g>
							<g>
								<polygon class="st2" points="-6.1,237.8 -20.1,245.9 -20.1,247.1 -6.1,238.9 22.4,255.4 22.4,288.3 -4.1,303.5 -2.1,303.5 
									23.4,288.8 23.4,254.8 								"/>
							</g>
							<g>
								<polygon class="st2" points="49.8,303.5 23.4,288.3 23.4,255.4 51.9,238.9 80.3,255.4 80.3,288.3 53.9,303.5 55.9,303.5 
									81.3,288.8 81.3,254.8 51.9,237.8 22.4,254.8 22.4,288.8 47.8,303.5 								"/>
							</g>
							<g>
								<polygon class="st2" points="107.8,303.5 81.3,288.3 81.3,255.4 109.8,238.9 138.3,255.4 138.3,288.3 111.8,303.5 
									113.8,303.5 139.3,288.8 139.3,254.8 109.8,237.8 80.3,254.8 80.3,288.8 105.8,303.5 								"/>
							</g>
							<g>
								<polygon class="st2" points="339.6,303.5 313.1,288.3 313.1,255.4 341.6,238.9 370.1,255.4 370.1,288.3 343.6,303.5 
									345.6,303.5 371.1,288.8 371.1,254.8 341.6,237.8 312.1,254.8 312.1,288.8 337.6,303.5 								"/>
							</g>
							<g>
								<polygon class="st2" points="399.5,238.9 413.3,246.9 413.3,245.7 399.5,237.8 370.1,254.8 370.1,288.8 395.5,303.5 
									397.5,303.5 371.1,288.3 371.1,255.4 								"/>
							</g>
							<g>
								<polygon class="st2" points="-2.1,303.5 22.9,289.1 47.8,303.5 49.8,303.5 22.9,288 -4.1,303.5 								"/>
							</g>
							<g>
								<polygon class="st2" points="55.9,303.5 80.8,289.1 105.8,303.5 107.8,303.5 80.8,288 53.9,303.5 								"/>
							</g>
							<g>
								<polygon class="st2" points="113.8,303.5 138.8,289.1 163.7,303.5 165.7,303.5 138.8,288 111.8,303.5 								"/>
							</g>
							<g>
								<polygon class="st2" points="171.8,303.5 196.7,289.1 221.7,303.5 223.7,303.5 196.7,288 169.8,303.5 								"/>
							</g>
							<g>
								<polygon class="st2" points="229.7,303.5 254.7,289.1 279.6,303.5 281.6,303.5 254.7,288 227.7,303.5 								"/>
							</g>
							<g>
								<polygon class="st2" points="287.7,303.5 312.6,289.1 337.6,303.5 339.6,303.5 312.6,288 285.7,303.5 								"/>
							</g>
							<g>
								<polygon class="st2" points="345.6,303.5 370.6,289.1 395.5,303.5 397.5,303.5 370.6,288 343.6,303.5 								"/>
							</g>
						</g>
						<g>
							<path class="st2" d="M52.1,59.6c0.9,0,1.6-0.7,1.6-1.6s-0.7-1.6-1.6-1.6c-0.9,0-1.6,0.7-1.6,1.6S51.3,59.6,52.1,59.6z"/>
							<path class="st2" d="M185.5,6.9c0.1,0,0.3-0.1,0.3-0.3c0-0.1-0.1-0.3-0.3-0.3c-0.1,0-0.3,0.1-0.3,0.3
								C185.3,6.8,185.4,6.9,185.5,6.9z"/>
							<path class="st2" d="M207.8,16.4c-1.7,0-3.1,1.4-3.1,3.1s1.4,3.1,3.1,3.1c1.7,0,3.1-1.4,3.1-3.1
								C210.8,17.8,209.5,16.4,207.8,16.4z"/>
							<path class="st2" d="M207.8,47.1c1.1,0,1.9-0.9,1.9-1.9c0-1.1-0.9-1.9-1.9-1.9c-1.1,0-1.9,0.9-1.9,1.9
								C205.8,46.2,206.7,47.1,207.8,47.1z"/>
							<path class="st2" d="M230,59.7c1,0,1.7-0.8,1.7-1.7c0-1-0.8-1.7-1.7-1.7c-1,0-1.7,0.8-1.7,1.7S229,59.7,230,59.7z"/>
							<circle class="st2" cx="230" cy="6.7" r="0.9"/>
							<path class="st2" d="M252.2,21.2c1,0,1.8-0.8,1.8-1.8s-0.8-1.8-1.8-1.8s-1.8,0.8-1.8,1.8C250.5,20.5,251.3,21.2,252.2,21.2z"
								/>
							<path class="st2" d="M252.2,42.1c-1.7,0-3.1,1.4-3.1,3.1c0,1.7,1.4,3.1,3.1,3.1s3.1-1.4,3.1-3.1S253.9,42.1,252.2,42.1z"/>
							<path class="st2" d="M274.5,8c0.7,0,1.3-0.6,1.3-1.3s-0.6-1.3-1.3-1.3c-0.7,0-1.3,0.6-1.3,1.3S273.7,8,274.5,8z"/>
							<path class="st2" d="M296.7,21.9c1.3,0,2.4-1.1,2.4-2.4s-1.1-2.4-2.4-2.4s-2.4,1.1-2.4,2.4C294.3,20.8,295.4,21.9,296.7,21.9
								z"/>
							<circle class="st2" cx="296.7" cy="45.2" r="2.9"/>
							<path class="st2" d="M318.9,8.1c0.8,0,1.5-0.7,1.5-1.5s-0.7-1.5-1.5-1.5s-1.5,0.7-1.5,1.5C317.4,7.5,318.1,8.1,318.9,8.1z"/>
							<path class="st2" d="M341.1,21.2c1,0,1.7-0.8,1.7-1.7c0-1-0.8-1.7-1.7-1.7s-1.7,0.8-1.7,1.7
								C339.4,20.4,340.2,21.2,341.1,21.2z"/>
							<circle class="st2" cx="341.1" cy="45.2" r="1.2"/>
							<path class="st2" d="M363.4,7.8c0.6,0,1.2-0.5,1.2-1.2c0-0.6-0.5-1.2-1.2-1.2c-0.6,0-1.2,0.5-1.2,1.2
								C362.2,7.3,362.7,7.8,363.4,7.8z"/>
							<path class="st2" d="M385.6,21.3c1,0,1.8-0.8,1.8-1.8s-0.8-1.8-1.8-1.8s-1.8,0.8-1.8,1.8C383.8,20.5,384.6,21.3,385.6,21.3z"
								/>
							<circle class="st2" cx="385.6" cy="45.2" r="2.1"/>
							<path class="st2" d="M29.9,94.5c-1.1,0-2,0.9-2,2s0.9,2,2,2s2-0.9,2-2C32,95.4,31,94.5,29.9,94.5z"/>
							<circle class="st2" cx="7.7" cy="83.7" r="1.3"/>
							<path class="st2" d="M7.7,59c0.5,0,1-0.4,1-1c0-0.5-0.4-1-1-1s-1,0.4-1,1C6.7,58.5,7.1,59,7.7,59z"/>
							<circle class="st2" cx="29.9" cy="45.2" r="3"/>
							<path class="st2" d="M52.1,86.2c1.4,0,2.5-1.1,2.5-2.5s-1.1-2.5-2.5-2.5s-2.5,1.1-2.5,2.5S50.8,86.2,52.1,86.2z"/>
							<path class="st2" d="M230,86c1.3,0,2.3-1,2.3-2.3s-1-2.3-2.3-2.3s-2.3,1-2.3,2.3C227.7,84.9,228.7,86,230,86z"/>
							<path class="st2" d="M274.5,56.8c-0.7,0-1.2,0.5-1.2,1.2s0.5,1.2,1.2,1.2s1.2-0.5,1.2-1.2C275.6,57.3,275.1,56.8,274.5,56.8z
								"/>
							<path class="st2" d="M274.5,85.9c1.2,0,2.2-1,2.2-2.2s-1-2.2-2.2-2.2s-2.2,1-2.2,2.2S273.2,85.9,274.5,85.9z"/>
							<circle class="st2" cx="296.7" cy="96.5" r="1.4"/>
							<path class="st2" d="M318.9,54.7c-1.8,0-3.2,1.5-3.2,3.2c0,1.8,1.5,3.2,3.2,3.2c1.8,0,3.2-1.5,3.2-3.2
								C322.2,56.2,320.7,54.7,318.9,54.7z"/>
							<path class="st2" d="M363.4,60.4c1.3,0,2.4-1.1,2.4-2.4c0-1.3-1.1-2.4-2.4-2.4S361,56.7,361,58S362,60.4,363.4,60.4z"/>
							<path class="st2" d="M385.6,98.9c1.3,0,2.4-1.1,2.4-2.4s-1.1-2.4-2.4-2.4s-2.4,1.1-2.4,2.4S384.3,98.9,385.6,98.9z"/>
							<path class="st2" d="M363.4,86.5c1.6,0,2.8-1.3,2.8-2.8s-1.3-2.8-2.8-2.8c-1.6,0-2.8,1.3-2.8,2.8S361.8,86.5,363.4,86.5z"/>
							<path class="st2" d="M254.1,96.5c0-1-0.8-1.8-1.8-1.8s-1.8,0.8-1.8,1.8s0.8,1.8,1.8,1.8C253.2,98.3,254.1,97.5,254.1,96.5z"
								/>
							<circle class="st2" cx="318.9" cy="83.7" r="1.5"/>
							<path class="st2" d="M341.1,98.1c0.9,0,1.6-0.7,1.6-1.6s-0.7-1.6-1.6-1.6s-1.6,0.7-1.6,1.6C339.6,97.4,340.3,98.1,341.1,98.1
								z"/>
							<path class="st2" d="M385.6,120.1c-1.1,0-2.1,0.9-2.1,2.1c0,1.1,0.9,2.1,2.1,2.1c1.1,0,2.1-0.9,2.1-2.1
								S386.7,120.1,385.6,120.1z"/>
							<path class="st2" d="M29.9,171.2c-1.3,0-2.3,1-2.3,2.3s1,2.3,2.3,2.3s2.3-1,2.3-2.3S31.2,171.2,29.9,171.2z"/>
							<circle class="st2" cx="7.7" cy="160.7" r="0.2"/>
							<circle class="st2" cx="7.7" cy="135" r="1.9"/>
							<path class="st2" d="M29.9,120.6c-0.9,0-1.6,0.7-1.6,1.6s0.7,1.6,1.6,1.6s1.6-0.7,1.6-1.6C31.5,121.3,30.8,120.6,29.9,120.6z
								"/>
							<path class="st2" d="M72.9,173.5c0,0.8,0.7,1.5,1.5,1.5s1.5-0.7,1.5-1.5s-0.7-1.5-1.5-1.5C73.6,172.1,72.9,172.7,72.9,173.5z
								"/>
							<path class="st2" d="M296.7,119.8c-1.3,0-2.4,1.1-2.4,2.4s1.1,2.4,2.4,2.4s2.4-1.1,2.4-2.4S298,119.8,296.7,119.8z"/>
							<path class="st2" d="M316.4,135c0,1.4,1.1,2.5,2.5,2.5s2.5-1.1,2.5-2.5s-1.1-2.5-2.5-2.5C317.6,132.5,316.4,133.6,316.4,135z
								"/>
							<circle class="st2" cx="341.1" cy="173.5" r="1.5"/>
							<circle class="st2" cx="318.9" cy="160.7" r="1.9"/>
							<circle class="st2" cx="341.1" cy="122.2" r="2.1"/>
							<circle class="st2" cx="363.4" cy="160.7" r="2.9"/>
							<path class="st2" d="M385.6,175.2c0.9,0,1.7-0.7,1.7-1.7s-0.7-1.7-1.7-1.7c-0.9,0-1.7,0.7-1.7,1.7S384.7,175.2,385.6,175.2z"
								/>
							<path class="st2" d="M363.4,137.9c1.6,0,2.9-1.3,2.9-2.9c0-1.6-1.3-2.9-2.9-2.9s-2.9,1.3-2.9,2.9
								C360.5,136.6,361.8,137.9,363.4,137.9z"/>
							<path class="st2" d="M52.1,163.5c1.6,0,2.8-1.3,2.8-2.8c0-1.6-1.3-2.8-2.8-2.8c-1.6,0-2.8,1.3-2.8,2.8S50.6,163.5,52.1,163.5
								z"/>
							<path class="st2" d="M74.4,201.6c1.3,0,2.4-1.1,2.4-2.4c0-1.3-1.1-2.4-2.4-2.4s-2.4,1.1-2.4,2.4S73,201.6,74.4,201.6z"/>
							<path class="st2" d="M120,199.2c0-0.6-0.5-1.1-1.1-1.1s-1.1,0.5-1.1,1.1s0.5,1.1,1.1,1.1S120,199.8,120,199.2z"/>
							<path class="st2" d="M141.1,214.2c1.2,0,2.2-1,2.2-2.2s-1-2.2-2.2-2.2s-2.2,1-2.2,2.2C138.9,213.2,139.8,214.2,141.1,214.2z"
								/>
							<path class="st2" d="M165.4,199.2c0-1.2-1-2.1-2.1-2.1s-2.1,1-2.1,2.1c0,1.2,1,2.1,2.1,2.1S165.4,200.4,165.4,199.2z"/>
							<path class="st2" d="M185.5,214.5c1.4,0,2.5-1.1,2.5-2.5s-1.1-2.5-2.5-2.5s-2.5,1.1-2.5,2.5S184.1,214.5,185.5,214.5z"/>
							<circle class="st2" cx="29.9" cy="250.5" r="1.4"/>
							<circle class="st2" cx="7.7" cy="237.7" r="1.2"/>
							<path class="st2" d="M7.1,212c0,0.3,0.2,0.5,0.5,0.5s0.5-0.2,0.5-0.5s-0.2-0.5-0.5-0.5C7.4,211.5,7.1,211.7,7.1,212z"/>
							<circle class="st2" cx="29.9" cy="199.2" r="2.3"/>
							<path class="st2" d="M50.3,237.7c0,1,0.8,1.9,1.9,1.9c1,0,1.9-0.8,1.9-1.9c0-1-0.8-1.9-1.9-1.9S50.3,236.7,50.3,237.7z"/>
							<path class="st2" d="M53.4,212c0-0.7-0.6-1.3-1.3-1.3s-1.3,0.6-1.3,1.3s0.6,1.3,1.3,1.3C52.8,213.3,53.4,212.7,53.4,212z"/>
							<path class="st2" d="M96.6,211c-0.6,0-1,0.5-1,1c0,0.6,0.5,1,1,1c0.6,0,1-0.5,1-1C97.6,211.4,97.2,211,96.6,211z"/>
							<path class="st2" d="M117.1,250.5c0,1,0.8,1.8,1.8,1.8s1.8-0.8,1.8-1.8s-0.8-1.8-1.8-1.8S117.1,249.6,117.1,250.5z"/>
							<path class="st2" d="M96.6,235.2c-1.4,0-2.5,1.1-2.5,2.5s1.1,2.5,2.5,2.5s2.5-1.1,2.5-2.5S98,235.2,96.6,235.2z"/>
							<path class="st2" d="M185.5,240.4c1.5,0,2.7-1.2,2.7-2.7s-1.2-2.7-2.7-2.7s-2.7,1.2-2.7,2.7S184,240.4,185.5,240.4z"/>
							<path class="st2" d="M341.1,249.2c-0.8,0-1.4,0.6-1.4,1.4s0.6,1.4,1.4,1.4s1.4-0.6,1.4-1.4S341.9,249.2,341.1,249.2z"/>
							<path class="st2" d="M341.1,200.8c0.9,0,1.6-0.7,1.6-1.6c0-0.9-0.7-1.6-1.6-1.6s-1.6,0.7-1.6,1.6S340.3,200.8,341.1,200.8z"
								/>
							<path class="st2" d="M363.4,208.9c-1.7,0-3.1,1.4-3.1,3.1s1.4,3.1,3.1,3.1s3.1-1.4,3.1-3.1S365.1,208.9,363.4,208.9z"/>
							<path class="st2" d="M385.6,200.9c0.9,0,1.7-0.8,1.7-1.7s-0.8-1.7-1.7-1.7c-0.9,0-1.7,0.8-1.7,1.7
								C383.9,200.1,384.7,200.9,385.6,200.9z"/>
							<path class="st2" d="M72.7,250.5c0,0.9,0.8,1.7,1.7,1.7c0.9,0,1.7-0.8,1.7-1.7s-0.8-1.7-1.7-1.7
								C73.4,248.8,72.7,249.6,72.7,250.5z"/>
							<path class="st2" d="M74.4,279c1.5,0,2.8-1.2,2.8-2.8c0-1.5-1.2-2.8-2.8-2.8c-1.5,0-2.8,1.2-2.8,2.8
								C71.6,277.7,72.8,279,74.4,279z"/>
							<circle class="st2" cx="141.1" cy="237.7" r="2.9"/>
							<circle class="st2" cx="163.3" cy="250.5" r="1.1"/>
							<path class="st2" d="M185.5,291.2c1.2,0,2.1-1,2.1-2.1c0-1.2-1-2.1-2.1-2.1c-1.2,0-2.1,1-2.1,2.1S184.4,291.2,185.5,291.2z"
								/>
							<circle class="st2" cx="163.3" cy="276.2" r="3.2"/>
							<path class="st2" d="M343,276.2c0-1-0.8-1.8-1.8-1.8s-1.8,0.8-1.8,1.8s0.8,1.8,1.8,1.8S343,277.2,343,276.2z"/>
							<path class="st2" d="M385.6,252.9c1.3,0,2.4-1.1,2.4-2.4c0-1.3-1.1-2.4-2.4-2.4s-2.4,1.1-2.4,2.4
								C383.2,251.9,384.3,252.9,385.6,252.9z"/>
							<path class="st2" d="M385.6,273.8c-1.3,0-2.4,1.1-2.4,2.4s1.1,2.4,2.4,2.4s2.4-1.1,2.4-2.4S386.9,273.8,385.6,273.8z"/>
							<path class="st2" d="M29.9,274.8c-0.8,0-1.4,0.6-1.4,1.4s0.6,1.4,1.4,1.4s1.4-0.6,1.4-1.4S30.7,274.8,29.9,274.8z"/>
							<path class="st2" d="M52.1,285.5c-2,0-3.5,1.6-3.5,3.5c0,2,1.6,3.5,3.5,3.5c2,0,3.5-1.6,3.5-3.5
								C55.7,287.1,54.1,285.5,52.1,285.5z"/>
							<path class="st2" d="M96.6,286.9c-1.2,0-2.1,1-2.1,2.1c0,1.2,1,2.1,2.1,2.1c1.2,0,2.1-1,2.1-2.1S97.8,286.9,96.6,286.9z"/>
							<path class="st2" d="M118.8,278.6c1.3,0,2.4-1.1,2.4-2.4s-1.1-2.4-2.4-2.4s-2.4,1.1-2.4,2.4S117.5,278.6,118.8,278.6z"/>
							<path class="st2" d="M143.8,289c0-1.5-1.2-2.8-2.8-2.8s-2.8,1.2-2.8,2.8c0,1.5,1.2,2.8,2.8,2.8S143.8,290.6,143.8,289z"/>
							<path class="st2" d="M318.9,290.9c1.1,0,1.9-0.9,1.9-1.9c0-1.1-0.9-1.9-1.9-1.9c-1.1,0-1.9,0.9-1.9,1.9
								C317,290.1,317.9,290.9,318.9,290.9z"/>
							<path class="st2" d="M363.4,291.1c1.2,0,2.1-0.9,2.1-2.1s-0.9-2.1-2.1-2.1s-2.1,0.9-2.1,2.1S362.2,291.1,363.4,291.1z"/>
						</g>
					</g>
				</g>
			</g>
		</g>
		<g>
			<g>
				<defs>
					<rect id="SVGID_5_" y="0" width="396" height="288"/>
				</defs>
				<clipPath id="SVGID_6_">
					<use xlink:href="#SVGID_5_"  style="overflow:visible;"/>
				</clipPath>
				<g class="st3">
					<g>
						<g>
							<g>
								<polygon class="st4" points="254.9,-34.7 254.9,-7.6 227.9,8 200.9,-7.6 200.9,-34.7 200.6,-34.7 200.6,-7.4 227.8,8.3 
									227.9,8.3 255.1,-7.4 255.1,-7.4 255.1,-34.7 								"/>
							</g>
							<g>
								<polygon class="st4" points="309.2,-34.7 309.2,-7.6 282.1,8 255.1,-7.6 255.1,-34.7 254.9,-34.7 254.9,-7.4 282.1,8.3 
									282.1,8.3 309.3,-7.4 309.4,-7.4 309.4,-34.7 								"/>
							</g>
							<g>
								<polygon class="st4" points="363.4,-34.7 363.4,-7.6 336.4,8 309.4,-7.6 309.4,-34.7 309.2,-34.7 309.2,-7.4 336.3,8.3 
									336.4,8.3 363.6,-7.4 363.7,-7.4 363.7,-34.7 								"/>
							</g>
							<g>
								<polygon class="st4" points="363.7,-7.6 363.7,-34.7 363.4,-34.7 363.4,-7.4 390.6,8.3 390.7,8.3 407.9,-1.6 407.9,-1.9 
									390.7,8 								"/>
							</g>
							<g>
								<path class="st4" d="M309.3,55.3L309.3,55.3L282,39.6V8.1h0.1l27.2-15.7h0.1l27.2,15.7v31.5h-0.1L309.3,55.3z M282.3,39.4
									l27,15.6l27-15.6V8.2l-27-15.6l-27,15.6V39.4z"/>
							</g>
							<g>
								<path class="st4" d="M363.5,55.3L363.5,55.3l-27.3-15.7V8.1h0.1l27.2-15.7h0.1l27.2,15.7v31.5h-0.1L363.5,55.3z M336.5,39.4
									l27,15.6l27-15.6V8.2l-27-15.6l-27,15.6V39.4z"/>
							</g>
							<g>
								<polygon class="st4" points="407.9,49.3 390.8,39.4 390.8,8.2 407.9,-1.6 407.9,-1.9 390.6,8.1 390.6,8.1 390.6,39.6 
									407.9,49.6 								"/>
							</g>
							<g>
								<path class="st4" d="M336.4,102.3L336.4,102.3l-27.3-15.7V55.1h0.1l27.2-15.7h0.1l27.2,15.7v31.5h-0.1L336.4,102.3z
									 M309.4,86.4l27,15.6l27-15.6V55.2l-27-15.6l-27,15.6V86.4z"/>
							</g>
							<g>
								<polygon class="st4" points="407.9,92.1 390.7,102 363.7,86.4 363.7,55.2 390.7,39.6 407.9,49.6 407.9,49.3 390.7,39.4 
									390.7,39.4 363.5,55.1 363.4,55.1 363.4,86.6 390.6,102.3 390.7,102.3 407.9,92.4 								"/>
							</g>
							<g>
								<polygon class="st4" points="-16.3,86.4 -16.3,86.4 -20.1,88.6 -20.1,88.8 -16.3,86.6 10.7,102.2 10.7,133.4 -16.3,149 
									-20.1,146.8 -20.1,147.1 -16.4,149.3 -16.3,149.3 10.9,133.6 10.9,133.6 10.9,102.1 								"/>
							</g>
							<g>
								<path class="st4" d="M363.5,149.3L363.5,149.3l-27.3-15.7v-31.5h0.1l27.2-15.7h0.1l27.2,15.7v31.5h-0.1L363.5,149.3z
									 M336.5,133.4l27,15.6l27-15.6v-31.2l-27-15.6l-27,15.6V133.4z"/>
							</g>
							<g>
								<polygon class="st4" points="407.9,143.3 390.8,133.4 390.8,102.2 407.9,92.4 407.9,92.1 390.6,102.1 390.6,102.1 
									390.6,133.6 407.9,143.6 								"/>
							</g>
							<g>
								<path class="st4" d="M10.8,196.3L10.8,196.3l-27.3-15.7v-31.5h0.1l27.2-15.7h0.1L38,149.1v31.5h-0.1L10.8,196.3z
									 M-16.2,180.4l27,15.6l27-15.6v-31.2l-27-15.6l-27,15.6V180.4z"/>
							</g>
							<g>
								<path class="st4" d="M65.1,196.3L65.1,196.3l-27.3-15.7v-31.5h0.1l27.2-15.7h0.1l27.2,15.7v31.5h-0.1L65.1,196.3z M38,180.4
									L65,196l27-15.6v-31.2l-27-15.6l-27,15.6V180.4z"/>
							</g>
							<g>
								<path class="st4" d="M119.3,196.3L119.3,196.3L92,180.6v-31.5h0.1l27.2-15.7h0.1l27.2,15.7v31.5h-0.1L119.3,196.3z
									 M92.3,180.4l27,15.6l27-15.6v-31.2l-27-15.6l-27,15.6V180.4z"/>
							</g>
							<g>
								<polygon class="st4" points="-16.3,180.4 -16.3,180.4 -20.1,182.6 -20.1,182.8 -16.3,180.6 10.7,196.2 10.7,227.4 
									-16.3,243 -20.1,240.8 -20.1,241.1 -16.4,243.3 -16.3,243.3 10.9,227.6 10.9,227.6 10.9,196.1 								"/>
							</g>
							<g>
								<path class="st4" d="M37.9,243.3L37.9,243.3l-27.3-15.7v-31.5h0.1l27.2-15.7H38l27.2,15.7v31.5h-0.1L37.9,243.3z
									 M10.9,227.4l27,15.6l27-15.6v-31.2l-27-15.6l-27,15.6C10.9,196.2,10.9,227.4,10.9,227.4z"/>
							</g>
							<g>
								<path class="st4" d="M92.2,243.3L92.2,243.3l-27.3-15.7v-31.5H65l27.2-15.7h0.1l27.2,15.7v31.5h-0.1L92.2,243.3z
									 M65.2,227.4l27,15.6l27-15.6v-31.2l-27-15.6l-27,15.6V227.4z"/>
							</g>
							<g>
								<path class="st4" d="M10.8,290.3L10.8,290.3l-27.3-15.7v-31.5h0.1l27.2-15.7h0.1L38,243.1v31.5h-0.1L10.8,290.3z
									 M-16.2,274.4l27,15.6l27-15.6v-31.2l-27-15.6l-27,15.6V274.4z"/>
							</g>
							<g>
								<path class="st4" d="M65.1,290.3L65.1,290.3l-27.3-15.7v-31.5h0.1l27.2-15.7h0.1l27.2,15.7v31.5h-0.1L65.1,290.3z M38,274.4
									L65,290l27-15.6v-31.2l-27-15.6l-27,15.6V274.4z"/>
							</g>
							<g>
								<path class="st4" d="M119.3,290.3L119.3,290.3L92,274.6v-31.5h0.1l27.2-15.7h0.1l27.2,15.7v31.5h-0.1L119.3,290.3z
									 M92.3,274.4l27,15.6l27-15.6v-31.2l-27-15.6l-27,15.6V274.4z"/>
							</g>
							<g>
								<path class="st4" d="M336.4,290.3L336.4,290.3l-27.3-15.7v-31.5h0.1l27.2-15.7h0.1l27.2,15.7v31.5h-0.1L336.4,290.3z
									 M309.4,274.4l27,15.6l27-15.6v-31.2l-27-15.6l-27,15.6V274.4z"/>
							</g>
							<g>
								<polygon class="st4" points="407.9,280.1 390.7,290 363.7,274.4 363.7,243.2 390.7,227.6 407.9,237.6 407.9,237.3 
									390.7,227.4 390.7,227.4 363.5,243.1 363.4,243.1 363.4,274.6 390.6,290.3 390.7,290.3 407.9,280.4 								"/>
							</g>
							<g>
								<polygon class="st4" points="-16.3,274.4 -16.3,274.4 -20.1,276.6 -20.1,276.8 -16.3,274.6 10.7,290.2 10.7,299.3 
									10.9,299.3 10.9,290.1 								"/>
							</g>
							<g>
								<polygon class="st4" points="10.9,299.3 10.9,290.2 37.9,274.6 64.9,290.2 64.9,299.3 65.2,299.3 65.2,290.1 38,274.4 
									37.9,274.4 10.7,290.1 10.7,290.1 10.7,299.3 								"/>
							</g>
							<g>
								<polygon class="st4" points="65.2,299.3 65.2,290.2 92.2,274.6 119.2,290.2 119.2,299.3 119.5,299.3 119.5,290.1 
									92.3,274.4 92.2,274.4 65,290.1 64.9,290.1 64.9,299.3 								"/>
							</g>
							<g>
								<polygon class="st4" points="119.5,299.3 119.5,290.2 146.5,274.6 173.5,290.2 173.5,299.3 173.7,299.3 173.7,290.1 
									146.5,274.4 146.5,274.4 119.3,290.1 119.2,290.1 119.2,299.3 								"/>
							</g>
							<g>
								<polygon class="st4" points="336.5,299.3 336.5,290.2 363.5,274.6 390.6,290.2 390.6,299.3 390.8,299.3 390.8,290.1 
									363.6,274.4 363.5,274.4 336.3,290.1 336.3,290.1 336.3,299.3 								"/>
							</g>
							<g>
								<polygon class="st4" points="407.9,280.1 390.6,290.1 390.6,290.1 390.6,299.3 390.8,299.3 390.8,290.2 407.9,280.4 
																	"/>
							</g>
						</g>
						<g>
							<g>
								<polygon class="st4" points="371.7,-34.7 371.7,-2.8 336.9,17.3 302.2,-2.8 302.2,-34.7 301,-34.7 301,-2.1 336.9,18.7 
									372.9,-2.1 372.9,-34.7 								"/>
							</g>
							<g>
								<polygon class="st4" points="372.9,-2.8 372.9,-34.7 371.7,-34.7 371.7,-2.1 407.7,18.7 407.9,18.6 407.9,17.2 407.7,17.3 
																	"/>
							</g>
							<g>
								<path class="st4" d="M18.7,79.9l-36-20.8V17.6l36-20.8l36,20.8v41.5L18.7,79.9z M-16.1,58.5l34.7,20.1l34.7-20.1V18.3
									l-34.6-20L-16,18.4v40.1H-16.1z"/>
							</g>
							<g>
								<polygon class="st4" points="-16.7,58.1 -20.1,60.1 -20.1,61.5 -16.7,59.5 18.1,79.6 18.1,119.7 -16.7,139.8 -20.1,137.8 
									-20.1,139.2 -16.7,141.2 19.3,120.4 19.3,78.9 								"/>
							</g>
							<g>
								<path class="st4" d="M54,141.2l-36-20.8V78.9l36-20.8l36,20.8v41.5L54,141.2z M19.3,119.7L54,139.8l34.7-20.1V79.6L54,59.5
									L19.3,79.6V119.7z"/>
							</g>
							<g>
								<path class="st4" d="M18.7,202.4l-36-20.8v-41.5l36-20.8l36,20.8v41.5L18.7,202.4z M-16.1,181l34.8,20l34.7-20v-40.1
									l-34.7-20.1L-16,140.9V181H-16.1z"/>
							</g>
							<g>
								<path class="st4" d="M407.9,139.9l-35.5-20.5l-36,20.8v41.5l36,20.8l35.5-20.5V139.9z M372.3,201l-34.7-20v-40.1l34.7-20.1
									l34.7,20.1V181L372.3,201z"/>
							</g>
							<g>
								<polygon class="st4" points="-16.7,180.6 -20.1,182.6 -20.1,184 -16.7,182 18.1,202.1 18.1,242.2 -16.7,262.3 -20.1,260.3 
									-20.1,261.7 -16.7,263.7 19.3,242.9 19.3,201.4 								"/>
							</g>
							<g>
								<path class="st4" d="M54,263.7l-36-20.8v-41.5l36-20.8l36,20.8v41.5L54,263.7z M19.3,242.2L54,262.3l34.7-20.1v-40.1L54,182
									l-34.7,20.1V242.2z"/>
							</g>
							<g>
								<path class="st4" d="M336.9,263.7l-36-20.8v-41.5l36-20.8l36,20.8v41.5L336.9,263.7z M302.2,242.2l34.7,20.1l34.7-20.1
									v-40.1L336.9,182l-34.7,20.1L302.2,242.2L302.2,242.2z"/>
							</g>
							<g>
								<polygon class="st4" points="407.9,262.2 407.7,262.3 372.9,242.2 372.9,202.1 407.7,182 407.9,182.1 407.9,180.7 
									407.7,180.6 371.7,201.4 371.7,242.9 407.7,263.7 407.9,263.6 								"/>
							</g>
							<g>
								<polygon class="st4" points="-16.1,299.3 -16.1,263.3 18.7,243.3 53.4,263.3 53.4,299.3 54.7,299.3 54.7,262.6 18.7,241.9 
									-17.3,262.6 -17.3,299.3 								"/>
							</g>
							<g>
								<polygon class="st4" points="54.7,299.3 54.7,263.3 89.4,243.3 124.1,263.3 124.1,299.3 125.4,299.3 125.4,262.6 
									89.4,241.9 53.4,262.6 53.4,299.3 								"/>
							</g>
							<g>
								<polygon class="st4" points="125.4,299.3 125.4,263.3 160.1,243.3 194.9,263.3 194.9,299.3 196.1,299.3 196.1,262.6 
									160.1,241.9 124.1,262.6 124.1,299.3 								"/>
							</g>
							<g>
								<polygon class="st4" points="196.1,299.3 196.1,263.3 230.9,243.3 265.6,263.3 265.6,299.3 266.8,299.3 266.8,262.6 
									230.9,241.9 194.9,262.6 194.9,299.3 								"/>
							</g>
							<g>
								<polygon class="st4" points="266.8,299.3 266.8,263.3 301.6,243.3 336.3,263.3 336.3,299.3 337.6,299.3 337.6,262.6 
									301.6,241.9 265.6,262.6 265.6,299.3 								"/>
							</g>
							<g>
								<polygon class="st4" points="407.9,299.3 407.9,262.4 372.3,241.9 336.3,262.6 336.3,299.3 337.6,299.3 337.6,263.3 
									372.3,243.3 407.1,263.3 407.1,299.3 								"/>
							</g>
						</g>
						<g>
							<circle class="st4" cx="282.1" cy="8.2" r="1.7"/>
							<path class="st4" d="M390.7,11.1c1.6,0,2.9-1.3,2.9-2.9s-1.3-2.9-2.9-2.9s-2.9,1.3-2.9,2.9S389.1,11.1,390.7,11.1z"/>
							<path class="st4" d="M230.1,8.2c0-1.2-1-2.3-2.3-2.3s-2.3,1-2.3,2.3c0,1.2,1,2.3,2.3,2.3S230.1,9.4,230.1,8.2z"/>
							<circle class="st4" cx="336.4" cy="8.2" r="1.9"/>
							<path class="st4" d="M390.7,37c-1.4,0-2.5,1.1-2.5,2.5s1.1,2.5,2.5,2.5s2.5-1.1,2.5-2.5S392.1,37,390.7,37z"/>
							<path class="st4" d="M9,102.2c0,1,0.8,1.8,1.8,1.8s1.8-0.8,1.8-1.8s-0.8-1.8-1.8-1.8S9,101.2,9,102.2z"/>
							<circle class="st4" cx="282.1" cy="39.5" r="2.9"/>
							<path class="st4" d="M306.3,55.2c0,1.7,1.3,3,3,3s3-1.3,3-3s-1.3-3-3-3S306.3,53.5,306.3,55.2z"/>
							<circle class="st4" cx="336.4" cy="102.2" r="1.8"/>
							<path class="st4" d="M309.3,84.1c-1.3,0-2.4,1.1-2.4,2.4s1.1,2.4,2.4,2.4s2.4-1.1,2.4-2.4S310.6,84.1,309.3,84.1z"/>
							<circle class="st4" cx="336.4" cy="39.5" r="2.5"/>
							<circle class="st4" cx="363.5" cy="86.5" r="3.6"/>
							<path class="st4" d="M390.7,104.2c1.1,0,2-0.9,2-2s-0.9-2-2-2s-2,0.9-2,2C388.6,103.3,389.6,104.2,390.7,104.2z"/>
							<path class="st4" d="M363.5,58.7c2,0,3.6-1.6,3.6-3.6s-1.6-3.6-3.6-3.6s-3.6,1.6-3.6,3.6C360,57.1,361.6,58.7,363.5,58.7z"/>
							<path class="st4" d="M10.8,136.4c1.6,0,2.9-1.3,2.9-2.9c0-1.6-1.3-2.9-2.9-2.9s-2.9,1.3-2.9,2.9
								C7.9,135.1,9.2,136.4,10.8,136.4z"/>
							<path class="st4" d="M66.5,133.5c0-0.8-0.6-1.4-1.4-1.4s-1.4,0.6-1.4,1.4c0,0.8,0.6,1.4,1.4,1.4
								C65.8,134.9,66.5,134.3,66.5,133.5z"/>
							<circle class="st4" cx="92.2" cy="149.2" r="2.7"/>
							<path class="st4" d="M121.9,133.5c0-1.4-1.2-2.6-2.6-2.6s-2.6,1.2-2.6,2.6c0,1.4,1.2,2.6,2.6,2.6
								C120.8,136.1,121.9,134.9,121.9,133.5z"/>
							<circle class="st4" cx="146.5" cy="149.2" r="3.1"/>
							<circle class="st4" cx="37.9" cy="149.2" r="1.3"/>
							<path class="st4" d="M62.9,196.2c0,1.2,1,2.1,2.1,2.1c1.2,0,2.1-1,2.1-2.1s-1-2.1-2.1-2.1C63.9,194,62.9,195,62.9,196.2z"/>
							<path class="st4" d="M37.9,177.4c-1.7,0-3.1,1.4-3.1,3.1c0,1.7,1.4,3.1,3.1,3.1c1.7,0,3.1-1.4,3.1-3.1
								C41,178.8,39.6,177.4,37.9,177.4z"/>
							<circle class="st4" cx="146.5" cy="180.5" r="3.3"/>
							<path class="st4" d="M336.4,194.5c-0.9,0-1.7,0.7-1.7,1.7c0,0.9,0.7,1.7,1.7,1.7c0.9,0,1.7-0.7,1.7-1.7
								S337.3,194.5,336.4,194.5z"/>
							<circle class="st4" cx="336.4" cy="133.5" r="2"/>
							<circle class="st4" cx="363.5" cy="149.2" r="3.8"/>
							<path class="st4" d="M390.7,135.6c1.1,0,2.1-0.9,2.1-2.1c0-1.1-0.9-2.1-2.1-2.1c-1.1,0-2.1,0.9-2.1,2.1
								C388.6,134.6,389.5,135.6,390.7,135.6z"/>
							<circle class="st4" cx="10.8" cy="196.2" r="2.1"/>
							<path class="st4" d="M10.8,230.9c1.9,0,3.4-1.5,3.4-3.4s-1.5-3.4-3.4-3.4s-3.4,1.5-3.4,3.4C7.4,229.4,8.9,230.9,10.8,230.9z"
								/>
							<circle class="st4" cx="92.2" cy="180.5" r="3.5"/>
							<path class="st4" d="M118,196.2c0,0.7,0.6,1.3,1.3,1.3c0.7,0,1.3-0.6,1.3-1.3s-0.6-1.3-1.3-1.3S118,195.5,118,196.2z"/>
							<circle class="st4" cx="146.5" cy="243.2" r="2.6"/>
							<path class="st4" d="M119.3,223.5c-2.2,0-4,1.8-4,4s1.8,4,4,4s4-1.8,4-4S121.5,223.5,119.3,223.5z"/>
							<path class="st4" d="M338.7,227.5c0-1.2-1-2.3-2.3-2.3c-1.2,0-2.3,1-2.3,2.3c0,1.2,1,2.3,2.3,2.3
								C337.7,229.7,338.7,228.7,338.7,227.5z"/>
							<path class="st4" d="M390.7,199.1c1.6,0,2.9-1.3,2.9-2.9c0-1.6-1.3-2.9-2.9-2.9s-2.9,1.3-2.9,2.9
								C387.7,197.8,389.1,199.1,390.7,199.1z"/>
							<path class="st4" d="M390.7,224.6c-1.6,0-2.9,1.3-2.9,2.9c0,1.6,1.3,2.9,2.9,2.9s2.9-1.3,2.9-2.9
								C393.6,225.9,392.3,224.6,390.7,224.6z"/>
							<path class="st4" d="M37.9,278.2c2,0,3.7-1.6,3.7-3.7s-1.6-3.7-3.7-3.7s-3.7,1.6-3.7,3.7S35.9,278.2,37.9,278.2z"/>
							<path class="st4" d="M37.9,240.6c-1.4,0-2.6,1.2-2.6,2.6c0,1.4,1.2,2.6,2.6,2.6c1.4,0,2.6-1.2,2.6-2.6
								C40.5,241.7,39.4,240.6,37.9,240.6z"/>
							<path class="st4" d="M65.1,230.5c1.6,0,3-1.3,3-3c0-1.6-1.3-3-3-3s-3,1.3-3,3C62.1,229.1,63.4,230.5,65.1,230.5z"/>
							<path class="st4" d="M95.6,243.2c0-1.9-1.5-3.4-3.4-3.4s-3.4,1.5-3.4,3.4s1.5,3.4,3.4,3.4S95.6,245,95.6,243.2z"/>
							<path class="st4" d="M119.3,292.8c1.5,0,2.7-1.2,2.7-2.7s-1.2-2.7-2.7-2.7s-2.7,1.2-2.7,2.7
								C116.7,291.6,117.9,292.8,119.3,292.8z"/>
							<circle class="st4" cx="146.5" cy="274.5" r="2.8"/>
							<path class="st4" d="M309.3,245.5c1.3,0,2.3-1,2.3-2.3s-1-2.3-2.3-2.3s-2.3,1-2.3,2.3S308,245.5,309.3,245.5z"/>
							<circle class="st4" cx="363.5" cy="243.2" r="2.6"/>
							<path class="st4" d="M65.1,286.6c-1.9,0-3.5,1.6-3.5,3.5s1.6,3.5,3.5,3.5s3.5-1.6,3.5-3.5S67,286.6,65.1,286.6z"/>
							<circle class="st4" cx="92.2" cy="274.5" r="1.6"/>
							<path class="st4" d="M309.3,271.9c-1.4,0-2.6,1.2-2.6,2.6s1.2,2.6,2.6,2.6s2.6-1.2,2.6-2.6S310.7,271.9,309.3,271.9z"/>
							<path class="st4" d="M363.5,271.8c-1.5,0-2.7,1.2-2.7,2.7s1.2,2.7,2.7,2.7s2.7-1.2,2.7-2.7S365,271.8,363.5,271.8z"/>
							<path class="st4" d="M390.7,287c-1.8,0-3.2,1.4-3.2,3.2c0,1.8,1.4,3.2,3.2,3.2c1.8,0,3.2-1.4,3.2-3.2
								C393.9,288.4,392.4,287,390.7,287z"/>
						</g>
					</g>
				</g>
			</g>
		</g>
	</g>
</g>
</svg>
