<?xml version="1.0" encoding="utf-8"?>
<!-- Generator: Adobe Illustrator 25.3.0, SVG Export Plug-In . SVG Version: 6.00 Build 0)  -->
<svg version="1.1" id="Calque_1" xmlns="http://www.w3.org/2000/svg" xmlns:xlink="http://www.w3.org/1999/xlink" x="0px" y="0px"
	 viewBox="0 0 358 73.8" style="enable-background:new 0 0 358 73.8;" xml:space="preserve">
<style type="text/css">
	.st0{fill:#211E21;}
	.st1{fill:#7B93BB;}
	.st2{fill:#58AD32;}
</style>
<path class="st0" d="M357.8,29.8c-0.1-0.1-0.2-0.2-0.2-0.3c0-0.7-0.2-1.5,0-2.2c0.1,0,0.2,0.1,0.2,0.1
	C357.8,28.2,357.8,29,357.8,29.8z"/>
<path class="st0" d="M357.6,35c-0.1-0.7,0-1.3,0-2c0-0.1,0.1-0.2,0.2-0.3c0,0.7,0,1.4,0,2.2C357.8,34.9,357.7,34.9,357.6,35z"/>
<g>
	<path class="st0" d="M72.5,73.6c-1.3-0.1-2.5-0.6-3.6-1c-1.2-0.4-2.3-1-3.4-1.7c-1.9-1.2-3.6-2.8-5.1-4.6c-0.5-0.6-0.7-1.2-0.7-2
		c0.1-1.5,0.1-3,0.3-4.5c0.1-0.5-0.2-1.1,0.3-1.5c0.5,0.3,0.7,0.9,0.9,1.3c0.9,1.6,2,3.1,3.3,4.4c1.5,1.6,3.4,2.9,5.3,3.9
		c1,0.5,2,0.9,3,1.2c1.1,0.3,2.2,0.7,3.4,0.6c0.4,0,0.7,0,1.1,0c1.1,0,2.2,0,3.3-0.3c0.9-0.2,1.8-0.5,2.7-0.8
		c2.2-0.9,4.1-2.2,5.8-3.9c1.3-1.3,2.5-2.8,3.3-4.6c0.6-1.3,1-2.6,1.3-4c0.6-2.3,0.2-4.7,0.3-7c0-0.1,0-0.2-0.1-0.2
		c-0.1-0.1-0.2-0.2-0.3-0.1c-0.2,0.2-0.4,0.5-0.6,0.7c-1.6,2-3.5,3.4-5.8,4.4c-1.2,0.6-2.5,0.9-3.8,1.3c-0.8,0.2-1.7,0.3-2.6,0.4
		c-2.2,0.1-4.4,0.2-6.5-0.2c-0.9-0.2-1.7-0.5-2.7-0.6c-1.7-0.7-3.5-1.5-5-2.6c-2.2-1.6-4.1-3.4-5.6-5.6c-1-1.4-1.7-2.9-2.3-4.5
		c-0.6-2-1-4-0.9-6.1c0-3.7,0-7.5,0-11.2c0-1.4-0.4-2.7-0.7-4.1c-0.5-1.8-1.5-3.3-2.8-4.6c-1.2-1.3-2.7-2.3-4.4-2.8
		c-1.8-0.6-3.6-0.6-5.4-0.5c-2.7,0.2-4.9,1.5-6.8,3.2c-1.2,1-2.1,2.2-2.8,3.6c-0.5,1.1-0.9,2.2-1.1,3.4c-0.3,2.1-0.3,4.1-0.3,6.2
		c0,8,0,16,0,24c0,1.5,0.2,1.5-1.5,1.5c-0.8,0-1.6,0-2.4,0c-0.4,0-0.5-0.1-0.6-0.6c0-0.4,0-0.7,0-1.1c0-8.8,0-17.5,0-26.3
		c0-1.2,0-2.4-0.3-3.5c0-0.1,0-0.2-0.1-0.2c-0.1-1.5-0.6-2.8-1.4-4.1c-1.3-2.3-3.2-4.1-5.6-5.2c-1.9-0.8-3.9-1-5.9-0.8
		c-1.3,0.1-2.6,0.4-3.8,1c-1.4,0.7-2.6,1.6-3.7,2.7C7,17.8,6,19.3,5.4,20.9c-0.3,0.9-0.6,1.8-0.6,2.8c0,2.1-0.1,4.3-0.1,6.4
		c0,3.7,0,7.4,0,11.1c0,1.1-0.1,1.2-1.2,1.2c-1,0-1.9,0-2.9,0c-0.4,0-0.5-0.1-0.6-0.6c0-0.3,0-0.6,0-0.8c0-10,0-20,0-30
		c0-1.7-0.2-1.5,1.5-1.5c0.7,0,1.4,0,2,0c1.1,0,1.2,0.1,1.2,1.1c0,0.8,0,1.5,0,2.3c0,0.2,0,0.4,0,0.6c0,0.1,0.2,0.2,0.4,0.1
		c0.4-0.3,0.8-0.6,1.2-1c1-0.9,2.1-1.5,3.2-2.2c1.4-0.8,3-1.3,4.5-1.7c0.8-0.2,1.7-0.2,2.5-0.2c1.2-0.1,2.4,0,3.6,0.2
		c0.6,0.1,1.2,0.3,1.8,0.5c2.1,0.8,4,2,5.7,3.6c1.2,1.2,2.2,2.5,3,3.9c0.2,0.4,0.5,0.4,0.7,0c0.4-0.6,0.8-1.3,1.2-1.9
		c1.4-2,3.2-3.4,5.3-4.5c1.2-0.6,2.5-1,3.8-1.4c1.2-0.3,2.4-0.3,3.6-0.5c0.1,0,0.2,0,0.2,0c0.7-0.1,1.5-0.2,2.2,0s1.5,0,2.3,0.2
		c1,0.2,1.9,0.5,2.8,0.9c1.6,0.7,3,1.7,4.3,2.8c1.7,1.5,3,3.3,3.9,5.3c0.5,1.2,0.9,2.5,1.1,3.8c0.2,1.6,0.2,3.2,0.2,4.8c0,3,0,6,0,9
		c0,0.9,0.1,1.8,0.1,2.6s0.7,3.1,1,3.8c0.3,0.5,0.5,1.1,0.8,1.6c1,1.8,2.3,3.4,3.9,4.7c1,0.8,2,1.5,3.1,2.1c1,0.5,2.1,0.9,3.2,1.2
		c1.3,0.3,2.6,0.3,3.9,0.4c1.5,0,2.9-0.3,4.3-0.7c2.8-0.9,5-2.5,6.9-4.6c1.4-1.5,2.4-3.2,3.2-5c0.2-0.4,0.3-0.9,0.4-1.4
		c0.2-1,0.6-1.9,0.6-2.9c0-0.5,0-1,0-1.6c0-7.9,0-15.8,0-23.8c0-0.2,0-0.5,0-0.7c0-1.5-0.1-1.4,1.4-1.4c0.9,0,1.8,0,2.6,0
		c0.5,0,0.6,0.1,0.6,0.6c0,0.3,0,0.6,0,1c0,13.9,0,27.8,0,41.7c0,1.6-0.2,3.1-0.5,4.6c-0.5,2.3-1.3,4.4-2.6,6.4
		c-1.3,2.1-2.8,3.9-4.7,5.4c-2,1.7-4.3,3-6.9,3.8c-0.7,0.2-1.5,0.6-2.3,0.6c-1.2-0.1-2.3,0-3.5,0.1c-0.1,0-0.1,0.1-0.2,0.1
		c-0.6,0-1.3,0-1.9,0c-0.1,0-0.1-0.1-0.2-0.1C74.8,73.6,73.7,73.4,72.5,73.6z"/>
	<path class="st0" d="M357.6,35c0.1,1.4-0.5,2.7-0.9,4c-0.6,1.9-1.5,3.7-2.6,5.3c-1.6,2.2-3.4,4.2-5.6,5.9c-1.5,1.2-3.1,2.1-4.9,2.9
		c-0.9,0.4-1.9,0.7-2.9,1s-1.9,0.3-2.9,0.6c-0.4,0.2-0.9,0.1-1.4,0.2c-1.4,0-2.7,0-4.1,0c-0.7,0-1.4,0-2.1-0.3
		c-0.1,0-0.2-0.1-0.3-0.1c-1.8-0.2-3.4-0.9-5.1-1.6c-1.6-0.6-3-1.5-4.3-2.4c-1.7-1.2-3.3-2.5-4.6-4.2c-0.1-0.2-0.3-0.3-0.4-0.4
		c0,0-0.1,0-0.2,0s-0.1,0.1-0.1,0.2c0,0.3-0.1,0.6-0.1,1c0,1.8,0,3.6,0,5.4c0,1.7-0.1,1.6-1.6,1.6c-0.8,0-1.7,0-2.5,0
		c-0.4,0-0.5-0.1-0.5-0.5s0-0.7,0-1.1c0-17,0-34,0-51c0-1.7,0.1-1.4,1.4-1.5c0.7,0,1.4,0,2.1,0c0.2,0,0.5,0,0.7,0.1s0.3,0.2,0.4,0.4
		c0,0.3,0,0.6,0,1c0,4.6,0,9.2,0,13.9c0,0.4,0,0.7,0,1.1c0,0.1,0,0.2,0.2,0.3c0.1,0,0.2,0,0.3-0.1c0.5-0.7,1.2-1.4,1.8-2
		c1.7-1.8,3.7-3.1,5.8-4.2c1.2-0.6,2.4-1.1,3.6-1.5c0.8-0.3,1.6-0.6,2.4-0.6c0.5,0,1-0.3,1.5-0.3c1.4-0.1,2.8-0.3,4.2-0.2
		c1,0.1,2,0,3,0.2s2.1,0.2,3,0.7c1.3,0.2,2.6,0.8,3.8,1.4c1.1,0.5,2.2,1.2,3.2,1.9c2.3,1.6,4.3,3.7,6,6c1.3,1.9,2.4,3.9,3.1,6.1
		c0.4,1.2,0.8,2.3,0.8,3.6c-0.2,0.7,0,1.5,0,2.2c0,0.1,0.1,0.2,0.2,0.3c0,1,0,1.9,0,2.9c-0.1,0.1-0.2,0.2-0.2,0.3
		C357.6,33.6,357.5,34.3,357.6,35z M334.3,50.6c1.2-0.1,2.5,0.2,3.8-0.3c0.6-0.3,1.4-0.1,1.9-0.5c1.4-0.3,2.7-1,3.9-1.8
		c2.1-1.3,3.9-3,5.4-4.9c1.9-2.4,3.2-5.1,3.6-8.1c0-0.1,0-0.2,0.1-0.3c0.2-0.5,0.3-1.1,0.3-1.6c0-1.2,0-2.3,0-3.5
		c0-0.3,0-0.7-0.1-0.9c-0.3-1-0.4-2-0.7-3c-0.6-2-1.6-3.9-2.8-5.6c-1.6-2.2-3.6-4-5.8-5.5c-1.4-0.9-3-1.6-4.6-2
		c-1.2-0.3-2.4-0.6-3.6-0.6c-0.6,0-1.2-0.2-1.8-0.1c-1.9,0.2-3.8,0.3-5.6,1c-1.2,0.5-2.5,1-3.6,1.7c-2.9,1.8-5.2,4.1-7,7
		c-1,1.6-1.7,3.3-2.2,5.1c-0.4,1.7-0.7,3.4-0.7,5.2c0,0.9,0.2,1.7,0.3,2.6c0.2,1.4,0.5,2.8,1.1,4.1c1.5,3.5,3.9,6.4,6.9,8.7
		c2.2,1.6,4.6,2.8,7.3,3.2c0.2,0,0.4,0.1,0.6,0.2c0.3,0.1,0.5,0.2,0.8,0.2C332.6,50.6,333.4,50.6,334.3,50.6z"/>
	<path class="st1" d="M72.5,73.6c1.2-0.1,2.3,0,3.5,0.1c0.1,0,0.1,0.1,0.2,0.1c-1.2,0-2.4,0-3.6,0C72.6,73.7,72.5,73.6,72.5,73.6z"
		/>
	<path class="st1" d="M78.1,73.8c0.1,0,0.1-0.1,0.2-0.1c1.2-0.1,2.3-0.2,3.5-0.1c0,0.1-0.1,0.2-0.1,0.2
		C80.5,73.8,79.3,73.8,78.1,73.8z"/>
	<path class="st2" d="M113.5,32.2c0-6.9,0-13.8,0-20.7c0-1.5-0.1-1.5,1.5-1.5c11.3,0,22.5,0,33.8,0c0.4,0,0.7,0,1.1,0
		s0.6,0.2,0.6,0.6c0,0.2,0,0.3,0,0.5c0,3.1,0,6.2,0,9.3c0,1-0.1,1.1-1.1,1.1c-2.8,0-5.6,0-8.4,0c-4.1,0-8.3,0-12.4,0
		c-1.4,0-1.4,0-1.4,1.4c0,1.1,0,2.1,0,3.2c0,0.6,0.2,0.8,0.8,0.8c0.4,0,0.7,0,1.1,0c5.8,0,11.6,0,17.4,0c0.3,0,0.6,0,0.8,0
		c0.9,0,0.9,0.1,0.9,1c0,2.9,0,5.8,0,8.7c0,0.8-0.1,0.9-0.9,0.9c-0.3,0-0.6,0-1,0c-5.8,0-11.5,0-17.3,0c-0.5,0-1,0-1.4,0.1
		c-0.3,0.1-0.5,0.3-0.5,0.6c0,1.4,0,2.8,0,4.2c0,0.3,0.2,0.5,0.5,0.6c0.4,0,0.8,0,1.2,0c9.1,0,18.2,0,27.2,0c0.4,0,0.7,0,1.1,0
		s0.7,0.3,0.8,0.8c0,0.2,0,0.3,0,0.5c0,3,0,6.1,0,9.1c0,0.2,0,0.3,0,0.5c0,0.5-0.3,0.8-0.8,0.8c-0.2,0-0.5,0-0.7,0
		c-13.9,0-27.7,0-41.6,0c-1.4,0-1.4,0-1.4-1.5C113.5,46.2,113.5,39.2,113.5,32.2z"/>
	<path class="st1" d="M185.8,54.7c-7.6,0-15.2,0-22.8,0c-0.4,0-0.7,0-1.1,0c-0.3,0-0.4-0.2-0.5-0.5c0-0.3,0-0.6,0-0.8
		c0-2.9,0-5.7,0-8.6c0-0.7,0.2-1.3,0.7-1.8c1.2-1.2,2.4-2.6,3.6-3.8c1.3-1.5,2.7-2.9,4.1-4.3c1.2-1.3,2.4-2.6,3.6-3.9
		c2-2.1,3.8-4.3,5.8-6.3c0.7-0.7,1.4-1.5,2.1-2.3c0.1-0.1,0.2-0.2,0.2-0.4c-0.1-0.2-0.2-0.2-0.4-0.2c-0.4,0-0.7,0-1.1,0
		c-5.2,0-10.4,0-15.6,0c-0.3,0-0.6,0-1,0c-0.6,0-0.9-0.3-0.9-0.9c0-0.2,0-0.4,0-0.6c0-2.9,0-5.7,0-8.6c0-1.4,0.2-1.5,1.5-1.5
		c11.7,0,23.3,0,35,0c1.2,0,1.2,0,1.2,1.2c0,2.7,0,5.4,0,8.1c0,0.6-0.2,1.1-0.6,1.6c-1,1-1.9,2.1-2.8,3.2c-0.6,0.7-1.3,1.3-1.9,2
		c-1.6,1.9-3.4,3.7-5,5.6c-1.5,1.7-3,3.4-4.6,5.2s-3.2,3.5-4.8,5.3c-0.2,0.2-0.6,0.4-0.5,0.8c0.1,0.4,0.6,0.3,0.9,0.4
		c0.3,0.1,0.7,0,1.1,0c7.2,0,14.5,0,21.7,0c0.4,0,1-0.2,1.3,0.1c0.3,0.4,0.6,1,0.6,1.5c0.1,0.7,0.3,1.3,0.6,1.9
		c0.9,2.5,2.1,4.9,3.8,7.1c0,0.1,0.1,0.1,0.1,0.2c0.2,0.3,0.1,0.6-0.2,0.6c-0.4,0-0.7,0-1.1,0c-7.1,0-14.2,0-21.4,0
		C186.8,54.7,186.3,54.7,185.8,54.7z"/>
	<path class="st0" d="M291.4,31.3c0,7,0,14,0,21c0,0.4,0,0.8,0,1.2c0,0.3-0.2,0.4-0.5,0.4c-1.1,0-2.2,0-3.3,0
		c-0.4,0-0.5-0.2-0.6-0.5s-0.1-0.6-0.1-0.9c0-1.8,0-3.6,0-5.4c0-0.3,0-0.6,0-1c0-0.2,0-0.3-0.2-0.4c-0.2,0-0.3,0.1-0.4,0.2
		c-0.6,0.8-1.3,1.6-2,2.3c-1.6,1.6-3.5,2.9-5.5,4c-1.4,0.8-2.9,1.3-4.5,1.7c-3.5,0.9-4,1-7.6,0.9c-1.1,0-2.2-0.2-3.3-0.4
		c-1.8-0.4-3.5-0.9-5.2-1.6c-2.3-1-4.3-2.4-6.2-4.1c-1.9-1.7-3.6-3.7-4.9-5.9c-0.8-1.4-1.5-2.9-2-4.4c-0.9-2.9-1.2-5.9-1.1-8.9
		c0.1-1.2,0.3-2.4,0.6-3.6c0.2-0.8,0.4-1.5,0.6-2.3c0.2-0.7,0.5-1.4,0.8-2.1c1.4-3,3.3-5.5,5.7-7.8c1.7-1.5,3.5-2.8,5.5-3.8
		c1.2-0.6,2.4-1.2,3.8-1.4c0.8-0.5,1.8-0.3,2.6-0.7c0.2-0.1,0.4-0.1,0.6-0.1c2.3-0.2,4.7-0.3,7,0c0.8,0.1,1.6,0.3,2.4,0.5
		c1.4,0.4,2.8,0.8,4.1,1.4c3.2,1.5,6.2,3.4,8.3,6.4l0.1,0.1c0.2,0.1,0.2,0.4,0.5,0.3s0.3-0.4,0.3-0.6c0-2,0-3.9,0-5.9
		c0-0.4,0-0.7,0.1-1.1c0.1-0.2,0.2-0.4,0.5-0.4c1.2,0,2.3,0,3.5,0c0.3,0,0.4,0.2,0.4,0.5c0,0.4,0,0.8,0,1.2
		C291.4,17.3,291.4,24.3,291.4,31.3z M268,50.6L268,50.6c0.6,0,1.3,0,1.9,0c0.4,0,0.8,0.1,1.1-0.1c0.9-0.5,1.9-0.4,2.9-0.8
		c0.9-0.4,1.9-0.7,2.7-1.1c2.1-1.1,3.9-2.6,5.5-4.4c1.4-1.6,2.7-3.4,3.5-5.4c0.3-0.7,0.5-1.4,0.7-2.1c0.2-0.7,0.4-1.4,0.5-2.2
		c0-0.2,0-0.3,0.1-0.5c0.5-1.5,0.2-3.1,0.2-4.6c-0.4-1.1-0.2-2.4-0.8-3.5c-0.5-2.3-1.7-4.3-3-6.2c-1-1.4-2.3-2.7-3.7-3.8
		c-1.7-1.3-3.6-2.5-5.7-3.1c-0.6-0.2-1.2-0.3-1.8-0.5c-1.4-0.5-2.9-0.4-4.4-0.5c-0.5,0-0.9,0.1-1.4,0.1c-1.5,0.1-2.9,0.4-4.3,0.9
		c-1.3,0.4-2.4,1-3.5,1.6c-2,1.2-3.8,2.7-5.3,4.5s-2.8,3.7-3.4,5.9c-0.4,0.4-0.3,1.1-0.5,1.6c-0.4,1.2-0.6,2.5-0.6,3.7
		c-0.1,1.5,0,2.9,0.2,4.4c0.2,1,0.4,2,0.7,2.9c0.5,1.6,1.3,3.1,2.3,4.5c1.6,2.2,3.4,4.1,5.7,5.6c1.9,1.3,4,2.3,6.4,2.7
		c0.2,0,0.5,0.1,0.7,0.2c0.3,0.1,0.6,0.2,0.9,0.2C266.3,50.6,267.2,50.6,268,50.6z"/>
	<path class="st0" d="M217.1,24.9c0-4.5,0-9.1,0-13.6c0-0.3,0-0.6,0-1s0.1-0.5,0.5-0.5c0.7,0,1.4,0,2,0s1.1,0,1.7,0
		c0.3,0,0.4,0.2,0.5,0.4c0,0.4,0,0.7,0,1.1c0,8.8,0,17.7,0,26.5c0,4.7,2.1,8.3,6.1,10.9c0.7,0.5,1.5,0.8,2.4,1.1
		c1.4,0.4,2.9,0.7,4.4,0.8c0.5,0,0.6,0.1,0.6,0.6c0,0.9,0,1.8,0,2.7c0,0.6-0.2,0.8-0.9,0.8c-0.6,0-1.2,0.1-1.8-0.2
		c-0.3-0.1-0.6-0.1-0.9-0.2c-2.1-0.2-4.1-0.9-5.9-1.9c-2-1.1-3.7-2.5-5.1-4.3c-1-1.3-1.8-2.7-2.4-4.2c-0.8-2.1-1.1-3.8-1.2-5.9
		C217.1,33.7,217.1,29.3,217.1,24.9z"/>
</g>
</svg>
