<?xml version="1.0" encoding="utf-8"?>
<!-- Generator: Adobe Illustrator 25.3.0, SVG Export Plug-In . SVG Version: 6.00 Build 0)  -->
<svg version="1.1" id="Calque_1" xmlns="http://www.w3.org/2000/svg" xmlns:xlink="http://www.w3.org/1999/xlink" x="0px" y="0px"
	 viewBox="0 0 171.2 118.5" style="enable-background:new 0 0 171.2 118.5;" xml:space="preserve">
<style type="text/css">
	.st0{fill:#211E21;}
	.st1{fill:#58AD32;}
	.st2{fill:#7B93BB;}
</style>
<path class="st0" d="M477.7,129c-0.1-0.1-0.2-0.2-0.2-0.3c0-0.7-0.2-1.5,0-2.2c0.1,0,0.2,0.1,0.2,0.1
	C477.7,127.4,477.7,128.2,477.7,129z"/>
<path class="st0" d="M477.5,134.2c-0.1-0.7,0-1.3,0-2c0-0.1,0.1-0.2,0.2-0.3c0,0.7,0,1.4,0,2.2C477.7,134.1,477.6,134.1,477.5,134.2
	z"/>
<g>
	<path class="st1" d="M0,118.3c0-0.4,0-0.7,0-1.1c0-9.6,0-19.3,0-28.9c0-0.4,0-0.9,0-1.3c0-0.3,0.2-0.4,0.5-0.5c0.4,0,0.8,0,1.2,0
		c6.8,0,13.5,0,20.3,0c16.2,0,32.4,0,48.6,0c0.3,0,0.6,0,1,0c0.6,0,0.8-0.2,0.8-0.8c0-0.2,0-0.3,0-0.5c0-6.8,0-13.5,0-20.3
		c0-0.3,0.1-0.6-0.2-0.7c-0.4-0.2-0.9-0.1-1.3-0.1c-8.2,0-16.5,0-24.7,0c-6.3,0-12.6,0-18.8,0c-0.5,0-1,0-1.5,0c0-0.5,0-0.9,0-1.4
		c0-2.8,0-5.6,0-8.4c0-0.3,0.1-0.7-0.1-1c0.5-0.2,1-0.1,1.5-0.1c6.8,0,13.6,0,20.4,0c1.9,0,1.7,0.2,1.7-1.6c0-5.8,0-11.6,0-17.4
		c0-0.3,0-0.6,0-0.8c0-0.7-0.1-0.8-0.8-0.8c-0.3,0-0.6,0-1,0c-6.7,0-13.5,0-20.2,0c-1.6,0-1.6,0.1-1.6-1.5c0-2.6,0-5.2,0-7.8
		c0-0.2,0-0.5,0-0.7c0-0.8,0.2-0.9,1-1c0.3,0,0.6,0,1,0c7.1,0,14.2,0,21.3,0c1.4,0,1.4,0,1.4-1.4c0-6.1,0-12.3,0-18.4
		c0-0.1,0-0.2,0-0.4c0-1.2,0-1.2,1.2-1.2c10,0,20,0,30,0c1,0,1,0,1.1,1.1c0,0.3,0,0.6,0,0.8c0,38.3,0,76.5,0,114.8
		c0,0.4,0,0.9,0,1.3c0,0.3-0.2,0.4-0.4,0.5c-0.2,0-0.3,0-0.5,0c-0.3,0-0.6,0-0.8,0c-26.4,0-52.7,0-79.1,0
		C1.1,118.5,0.5,118.6,0,118.3z"/>
	<path class="st2" d="M88.8,59.2c0-19.2,0-38.3,0-57.5c0-0.4,0-0.9,0-1.3C88.8,0.2,89,0,89.2,0c0.3,0,0.6,0,1,0c26.5,0,53,0,79.5,0
		c1.6,0,1.5-0.1,1.5,1.5c0,9.6,0,19.3,0,28.9c0,0.3,0,0.6,0,1c0,0.3-0.2,0.4-0.5,0.4c-0.4,0-0.8,0-1.2,0c-21.3,0-42.6,0-63.9,0
		c-0.4,0-0.8,0-1.2,0c-0.3,0-0.5,0.2-0.5,0.5c0,0.3,0,0.6,0,0.8c0,6.5,0,13,0,19.5c0,0.2,0,0.4,0,0.6c0.1,0.8,0.2,0.9,1,0.9
		c0.3,0,0.6,0,0.8,0c11.4,0,22.8,0,34.2,0c0.2,0,0.5,0,0.7,0c0.4,0,0.9-0.2,1.1,0.2c0.1,0.3-0.3,0.7-0.6,1c-1.4,1.6-2.9,3.1-4.4,4.7
		c-0.6,0.6-1.2,1.3-1.8,1.9c-1.2,1.3-2.5,2.5-3.6,3.8c-1.7,2.1-3.7,3.9-5.5,6c-1.6,1.8-3.3,3.5-4.9,5.3c-2.4,2.6-4.8,5.2-7.1,7.8
		c-1.4,1.5-2.8,3-4.1,4.4c-1.3,1.4-2.6,2.8-4,4.3c-1.2,1.3-2.3,2.6-3.5,3.8c-0.6,0.6-0.8,1.2-0.7,2c0,5.5,0,11.1,0,16.6
		c0,0.6,0,1.2,0,1.8c0,0.4-0.1,0.5-0.6,0.6c-0.2,0-0.5,0-0.7,0c-3.4,0-6.8,0-10.2,0c-0.2,0-0.4,0-0.6,0c-0.5,0-0.6-0.1-0.7-0.6
		c0-0.4,0-0.7,0-1.1C88.8,97.6,88.8,78.4,88.8,59.2z"/>
	<path class="st2" d="M171.2,77.7c0,5.9,0,11.8,0,17.7c0,1.4,0,1.4-1.3,1.4c-10.6,0-21.2,0-31.9,0c-0.3,0-0.6,0-0.9-0.1
		c-0.1,0-0.2-0.3-0.1-0.4c0.5-0.6,1-1.1,1.5-1.7c2.7-3,5.5-6,8.2-9.1c1.5-1.7,3-3.3,4.5-4.9c1.6-1.7,3.1-3.5,4.7-5.2
		c1.9-2.1,3.7-4.1,5.5-6.2c1.8-2,3.6-3.9,5.4-5.9c1.2-1.3,2.4-2.7,3.6-4.1c0.1-0.1,0.1-0.1,0.2-0.2c0.1-0.1,0.3-0.3,0.5-0.2
		c0.2,0.1,0.2,0.3,0.2,0.4c0,0.3,0,0.6,0,1C171.2,66.1,171.2,71.9,171.2,77.7z"/>
</g>
</svg>
