<?xml version="1.0" encoding="utf-8"?>
<!-- Generator: Adobe Illustrator 25.3.0, SVG Export Plug-In . SVG Version: 6.00 Build 0)  -->
<svg version="1.1" id="Calque_1" xmlns="http://www.w3.org/2000/svg" xmlns:xlink="http://www.w3.org/1999/xlink" x="0px" y="0px"
	 viewBox="0 0 549.2 495.5" style="enable-background:new 0 0 549.2 495.5;" xml:space="preserve">
<style type="text/css">
	.st0{fill:#202F4E;}
	.st1{fill:#668CAB;}
	.st2{fill:#FFFFFF;}
</style>
<g>
	<path class="st0" d="M412.5,348.1c-1.8-1.4-2-2.2-2.5-3.3c-7.3-16.4-14.7-32.8-21.8-49.3c-1-2.2-2.2-3.5-4.5-4.2
		c-56-17.3-105.5-7.2-147.4,35c-1.3,1.3-2.6,2.5-4.6,2.8c-6,0.8-8.6-2.3-6.3-7.9c5.1-12.3,10.4-24.5,15.6-36.7
		c26.7-63.1,53.3-126.1,79.9-189.2c1.9-4.5,4.9-6.2,9.6-6.2c5-0.1,8.9,0.8,11.2,6.1c32.3,73.2,64.7,146.4,97,219.6
		c4.4,10,4.3,10-6.4,10C418.1,324.7,411.9,331.9,412.5,348.1z M252.9,293.2c1-0.5,2.1-0.8,3.1-1.4c28.3-16.5,58.6-23,91.2-19.6
		c10.9,1.2,21.6,3.5,33.2,6.7c-21.3-46.6-42.1-92.3-63.5-138.9c-21.8,51.5-43,101.6-64.2,151.8c-0.3,0.6-0.6,1.2,0.3,1.6
		c-0.2,0-0.5-0.1-0.7-0.1c0,0.2,0,0.3,0,0.5C252.5,293.5,252.7,293.3,252.9,293.2z"/>
	<path class="st0" d="M108.9,141c-5.9,12.8-12.2,25.5-16.6,38.9c-8.8,27.1-11.6,54.8-10.3,83.2c1,23.2,7.8,44.9,16.5,66.1
		c8.1,19.9,19.4,38.1,32.7,55c0.8,1,2.3,1.5,1.9,3.2c-3.4,9.2-4.3,19.3-10.9,27.3c-1.3,1.6-1.4,3.4,1,4.4c3.5,1.4,3.6,3.4,1,5.8
		c-15.2-10.2-28-23-39.4-37.2C57.8,354.4,41.5,316.2,37,273.4c-2.7-25.7-1.3-51.2,5.1-76.3c8.4-33.1,23.5-63,45-89.5
		c0.2-0.2,0.5-0.4,0.8-0.5c0.7,1.1,1.1,2.7,2,3.4c7.1,4.9,9.2,12.7,12,20C103.5,134.5,105.1,138.4,108.9,141z"/>
	<path class="st0" d="M124,425.1c2.6-2.4,2.5-4.4-1-5.8c-2.4-1-2.3-2.8-1-4.4c6.5-8,7.4-18.1,10.9-27.3c6.2,5.6,11.5,11.9,17.7,17.4
		c23.1,20.8,50.4,30.3,81.1,31.2c15.2,0.4,30.3-1.3,45.3-2.6c40.7-3.7,78.4,4.1,112,28.5L389,462c-1.6,0.7-2.9-0.1-4.3-0.5
		c-25.4-7.4-50.8-6.7-76.4-0.8c-64.7,15.1-125.2,5.9-180.2-32.6C126.7,427.1,125.4,426.1,124,425.1z"/>
	<path class="st0" d="M108.9,141c-3.7-2.6-5.4-6.5-7-10.6c-2.8-7.4-4.9-15.1-12-20c-1-0.7-1.4-2.2-2-3.4
		c38-45.1,86.1-71.8,144.6-79.5c25.3-3.3,50.5-1.4,75.4,4.5c0.7,0.2,1.7,0,1.9,1.5c-2.2,1.7-4.2-0.4-6.3-0.5
		c-71.5-2.8-129.8,23.4-175.2,78.7C120.8,120.9,114.9,131,108.9,141z"/>
	<path class="st1" d="M454.1,412.6c0,3.5,0,7,0,10.5c0.1,4.5-2.2,6.3-6.5,6.2c-6-0.1-12-0.2-18-0.1c-4.4,0-6.4-2.3-6.5-6.4
		c-0.1-6.5-0.3-13,0-19.5c0.2-3.9-1.5-5-4.8-4.9c-5.8,0.1-11.6,0.4-17.5,0.3c-6.3-0.1-8-1.9-8.1-8c0-5.5-0.1-11-0.1-16.5
		c0.1-5.3,1.9-7.1,7.3-7.1c6.5-0.1,13-0.2,19.5,0c2.9,0.1,3.8-1,3.7-3.8c-0.2-6.3-0.2-12.7-0.2-19c0-6.3,2-8.3,8.4-8.4
		c5.2,0,10.3,0,15.5,0c5.4,0,7.6,2,7.7,7.5c0.1,6,0,12-0.4,18c-0.3,4.2,0.7,6.1,5.4,5.7c6.1-0.4,12.3-0.2,18.5-0.1
		c5.1,0.1,6.9,1.8,7,6.9c0.1,5.8,0.1,11.7,0,17.5c-0.1,5.2-1.9,7.2-7.2,7.3c-6.5,0.1-13-0.1-19.5-0.4c-3.3-0.2-4.5,1-4.2,4.3
		C454.3,405.9,454.1,409.3,454.1,412.6C454.1,412.6,454.1,412.6,454.1,412.6z"/>
	<path class="st0" d="M90.4,553.8c13.4-17.9,46.9-17.5,57.6,2.1c13.8-14.9,30.7-19.1,47-11.8c10.2,4.6,15.4,12.9,15.8,23.6
		c0.7,18.1,0.9,36.3,0,54.4c-0.3,6.1-7.3,1.5-11.1,2.7c-2.6,0.8-3.7-0.5-3.7-3.5c0.1-15.3,0-30.6,0-46c0-1.3,0-2.7,0-4
		c-0.2-9.2-3.2-16.9-12.3-20.4c-9.6-3.7-18.7-2.2-26.6,4.7c-4.2,3.7-6.1,8.5-6.1,14.2c0.1,16.7-0.1,33.3,0.1,50
		c0,3.7-0.5,5.2-4.8,5.1c-10.7-0.3-10.6-0.1-10.6-10.7c0-13.2,0-26.3,0-39.5c0-1.5,0-3-0.1-4.5c-0.6-8.4-3.1-15.9-11.6-19.4
		c-9.2-3.8-18-2.6-26,3.4c-5.8,4.3-7.6,10.7-7.6,17.7c0,15.8-0.1,31.6,0,47.5c0,2.9,0.2,5.4-3.8,4.8c-0.4-0.1-0.8,0.6-1.2,0.7
		c-8.2,1.9-10.2,0.4-10.2-7.9c-0.1-23.5,0-47-0.2-70.4c0-3,0.7-4.3,3.8-3.9c3.4,0.5,7.9-1.5,10,0.9
		C90.6,545.8,89.9,550.2,90.4,553.8z"/>
	<path class="st0" d="M-118.3,624.9c8.1-19,15.9-37.2,23.7-55.3c9.1-21.3,18.3-42.5,27-63.9c2.1-5.2,5.7-4.4,9.6-4.8
		c4-0.4,5.7,1.3,7.3,4.9C-36,540.6-21,575.3-6.1,610c2.1,5,4.9,9.5,10.1,11.9c0.9,0.4,1.9,0.8,1.6,2.1c-0.3,1.2-1.5,1.1-2.4,1.3
		c-10.6,2-20.9-3.3-25.5-13.3c-4.3-9.6-8.4-19.2-12.2-29c-1.4-3.5-3.6-5.1-7.1-5.9c-21-4.9-41,3.7-53.4,23.2
		c-3.8,5.9-7.1,12.1-9.1,18.8c-1.4,4.9-3.9,6.8-8.9,5.9C-114.4,624.7-115.9,624.9-118.3,624.9z M-62.9,518.8
		c-9.2,21.5-18.1,42.2-27,63c0.3,0.5,0.5,1,0.8,1.5c6.8-5.8,14.3-10.1,23-11.8c8.9-1.7,17.7-1.1,27,1.5
		c-6.7-15.4-13.2-30.2-19.6-44.9C-59.9,525.2-61.2,522.4-62.9,518.8z"/>
	<path class="st0" d="M354.4,578.8c8.8-7.6,16.9-14.6,25-21.7c3.3-2.8,6.9-5.4,9.6-8.7c5.2-6.4,11.8-6.2,19.5-5.1
		c-11.4,9.4-22.3,18.6-33.4,27.5c-2.7,2.2-2.9,3.3-0.5,6c10.9,12.4,21.5,25,32.3,37.5c2.4,2.8,4.5,5.8,7.7,7.8
		c0.7,0.5,1.5,1,1.2,1.9c-0.2,0.4-1,0.8-1.6,0.8c-5.2,0-10.3,0-15.5-0.1c-2.3-0.1-3.3-2.1-4.6-3.6c-9.8-11.3-19.5-22.8-29.3-34.1
		c-1.4-1.6-2.7-5-5-3.8c-3,1.6-5.9,3.8-5.8,8.5c0.4,9.6-0.1,19.3,0.1,29c0.1,3.6-1.1,4.4-4.5,4.4c-10.8,0-10.8,0.1-10.8-10.5
		c0-36.1,0-72.3-0.2-108.4c0-4,0.7-5.5,5.1-5.3c10.4,0.3,10.4,0.1,10.4,10.5c0,20.8,0,41.6,0.1,62.5
		C354.2,575.1,354.3,576.5,354.4,578.8z"/>
	<path class="st0" d="M484.6,614.2c-11.2,12.3-24.7,15.1-39.9,10.9c-10.4-2.8-17.2-10.6-17.9-19.8c-0.9-10.9,4.2-18.6,13.6-23.5
		c12.1-6.4,25.4-7.6,38.8-7.5c5,0,5.6-1.7,5.4-5.9c-0.7-11.4-7.2-18.5-18.6-19.6c-9.5-0.9-18.1,1.7-25.7,7.6
		c-1.6,1.3-3.1,3.9-5.6,0.8c-2.4-2.9-0.6-4.5,1.4-6.2c10.8-9.6,23.9-11.3,37.5-9.6c17.2,2.2,25.8,12.3,26,29.7c0.2,13,0,26,0.2,39
		c0,4.5,0.1,9.2,5.5,11.2c1.1,0.4,1.3,1.4,0.9,2.5c-0.4,1.2-1.5,1.1-2.4,1.3C494.3,627.2,488.7,624.1,484.6,614.2z M484.5,594.3
		c0-4.9,0-8.2,0-11.6c0-1.5-0.2-2.6-2.1-2.5c-11,0.3-22.1,0.6-31.8,6.4c-11,6.6-11.7,22.7-1.4,29.3c10.4,6.7,28.2,2,34.1-8.9
		C485.7,602.4,484.1,597.5,484.5,594.3z"/>
	<path class="st0" d="M293.3,613.9c-7,7.8-15,12-24.8,12.7c-8,0.6-15.7-0.6-22.6-4.8c-13.4-8.2-14.7-26.5-2.5-36.5
		c8.6-7,19.1-9.2,29.7-10.3c5.6-0.6,11.3-0.8,16.9-0.9c2.1-0.1,2.8-0.6,2.9-2.8c0.9-13.5-6.6-22-20.1-22.7c-9.2-0.5-17.4,2.1-24.5,8
		c-1.7,1.4-3,3.1-5.3,0.6c-2.2-2.5-1.1-4,0.8-5.9c6.3-6,14-9,22.4-10.1c8.5-1.1,16.9-0.8,25,2.6c11.7,4.8,16.3,14.2,16.5,26.1
		c0.2,12.5,0,25,0.1,37.5c0,5.4-0.5,11.1,6.1,14c2,0.9,1.2,2.8-0.9,3.6C304.9,628.2,296.2,623.7,293.3,613.9z M293,593.6
		c-0.1-14.6-0.1-14.6-13.9-12.7c-3.1,0.4-6.3,0.9-9.3,1.5c-5.1,1.1-9.8,3-13.8,6.6c-9.2,8.4-7,23.4,4.1,28.2c10,4.3,24,0.3,30.5-8.4
		C294.4,603.8,292.4,598.2,293,593.6z"/>
	<path class="st0" d="M636.8,584c-9.7,0-19.3,0.2-29-0.1c-3.6-0.1-4.5,1-4.1,4.5c1.7,12.7,6.6,23.2,19.4,28
		c13.5,5,26.1,2.7,37.6-6.1c1.6-1.2,3-4.3,5.5-1c1.4,1.8,1.7,3.1-0.2,5.1c-13.9,14.3-42.1,16.7-59.8,5.1
		c-16.7-11-23.3-33.8-15.4-53.2c6.6-16.2,24-26.3,43.3-25.3c16.8,0.9,30.4,11.3,35,26.6c0,0.2,0.1,0.3,0.2,0.5c1.3,5,3.4,11,0.8,15
		c-1.8,2.8-8.1,0.7-12.4,0.9c-3.5,0.2-7,0-10.5,0C643.8,584,640.3,584,636.8,584z M630.3,576.7C630.3,576.7,630.3,576.8,630.3,576.7
		c7.5,0,15,0,22.5,0c1.7,0,3.1,0.3,3.3-2.4c0.5-10.1-7.3-21.7-17-24.6c-17.1-5.1-33.4,6.3-35,24.3c-0.3,3.2,1.4,2.7,3.2,2.7
		C615,576.7,622.6,576.7,630.3,576.7z"/>
	<path class="st0" d="M35.7,555.1c0,15,0,30,0,44.9c0,2.5,0,5,0.3,7.5c1.2,9.2,6.7,13,15.7,11c1.7-0.4,3.3-1.1,4.1,1.1
		c0.7,2.1-0.2,3.3-2.1,4.4c-14,8.1-31.6-0.6-32.7-16.6c-0.7-10.3-0.4-20.6-0.4-30.9c-0.1-23.8,0-47.6-0.2-71.4
		c0-3.5,0.8-4.4,4.3-4.4c10.8,0.2,10.8,0,10.9,10.9C35.7,526.2,35.7,540.6,35.7,555.1C35.7,555.1,35.7,555.1,35.7,555.1z"/>
	<path class="st0" d="M499,463.9c-17.7,0-33.6-4.5-45.3-18.9c-1.2-1.4-3.4-3.2-2.9-5.1c0.9-2.9,5.4-1.5,8.1-1.9
		c7.5-1.1,5.5-10.9,5.7-18.6c0.3-10.4,0.3-10.3,10.3-10.3c2.7,0,3.7,1,4.7,3.2c3.6,8.6,6.6,17.4,11.3,25.5
		c4.8,8.3,11,15.1,20.3,18.2c2.2,0.7,3.6,2,3.3,4.3c-0.3,2.3-2.2,2.7-4.1,2.8C506.7,463.4,502.9,463.6,499,463.9z"/>
	<path class="st0" d="M545.6,554.5c2-0.9,2.6-2.7,3.7-4.1c6.5-8,15.1-10.5,25-9.2c3.5,0.5,5.2,1.6,4,5.8c-1.2,4.3-1.5,6.8-7.5,5.1
		c-13.8-3.8-25,5.5-25.2,20.2c-0.2,15.8-0.2,31.6,0.1,47.4c0.1,4.1-1,5.4-5.2,5.2c-10.4-0.3-10.3-0.1-10.3-10.4
		c-0.1-22.6-0.1-45.2-0.4-67.9c0-3,0.5-4,3.7-4c10.1,0,10-0.2,11.5,9.9C545.1,553.2,545.4,553.8,545.6,554.5z"/>
	<path class="st0" d="M379.9,445.1c-10.3-5.4-20.2-11.4-31.2-15.5c-23.4-8.6-47.3-10.1-71.7-7.1c-9.6,1.2-19.1,3.2-28.8,2.3
		c-8.9-0.8-13.3-6.8-10.7-14.1c1-2.9,2.3-5.8,4.5-8.2c0.4-0.5,0.8-1.1,1.2-1.6c3.8-5.1,3.6-6.4-1.3-10.7c0.8-0.7,1.6-1.4,2.5-2
		c6,2,7.6,5.4,4.8,10.7c-1.6,2.9-3.7,5.5-5.5,8.2c-2,3.1-4.1,6.5-1.9,10.1c2.3,3.7,6.3,4,10.2,3.4c9.1-1.3,17.8-4.2,26.5-6.7
		c39.1-11.2,72-0.7,99.5,28.4C378.8,443.1,379.9,443.8,379.9,445.1L379.9,445.1z"/>
	<path class="st1" d="M205.3,181c-6.7,1.5-12.3,2.7-17.9,3.8c-6,1.2-9.2,4.9-10.5,10.6c-1.2,5.5-2.3,11-3.9,16.7
		c-0.7-4.9-2-9.7-2.8-14.6c-1.4-8.2-6.2-12.5-14.2-13.7c-4.7-0.7-9.3-1.7-15.1-2.9c7-1.4,12.8-2.5,18.6-3.8
		c5.6-1.2,8.9-4.8,10.3-10.3c1.4-5.6,2.5-11.2,3.8-17c1.1,5.3,2.2,10.5,3.2,15.8c1.2,6.7,4.9,10.6,11.7,11.8
		C193.7,178.4,198.9,179.7,205.3,181z"/>
	<path class="st0" d="M244.4,388.1c-0.8,0.7-1.6,1.4-2.5,2c-3-3-4.6-7.5-7.7-9.8c-4.8-3.6-6.7-7.2-5.5-13c0.3-1.3-2.1-1.1-3.4-1.2
		c-3.8-0.2-7.6-0.1-11.4-1.1c-3.5-0.9-6.6-2.4-8.8-5.3c-11.6-15.6-27.4-17.9-45.1-14c-7.7,1.7-15,4.2-22.1,7.5
		c-0.9-0.1-2.1,0.5-2.2-1.1c11.3-6.1,22.9-11.4,36-12.6c14.6-1.3,27,2.6,35.9,15c4.1,5.7,10,7.3,16.6,7.5c8.9,0.2,8.9,0.2,7.7,9
		c-0.1,1-0.7,2.4,0.2,2.8C238.5,376.7,240,383.7,244.4,388.1z"/>
	<path class="st1" d="M275.3,663.3c-19.1,0-38.3,0-57.4,0c-1.3,0-2.7,0-4,0c-0.9,0-1.6-0.5-1.6-1.5c0-0.9,0.7-1.5,1.6-1.6
		c1.2-0.1,2.3-0.1,3.5-0.1c38.3,0,76.5,0,114.8,0c0.8,0,1.7,0,2.5,0c1.3,0.1,3-0.2,2.8,1.8c-0.2,1.6-1.7,1.3-2.8,1.3
		c-11.8,0-23.6,0-35.4,0.1C291.3,663.3,283.3,663.3,275.3,663.3z"/>
	<path class="st1" d="M219.1,145.6c5.6-0.9,9.2-3.5,9.7-9.7c0.7,5.8,3.5,9.2,9.5,9.6c-5.1,1.1-8.8,3.3-9.3,9.4
		C227.8,149.1,224.8,146.1,219.1,145.6z"/>
	<path class="st1" d="M203.5,222.3c5-0.6,6.9-3.8,7.9-8.1c0.7,4.6,3.2,7.3,7.8,8.2c-4.5,0.9-7.1,3.1-7.8,7.8
		C210.2,226.2,208.1,223.2,203.5,222.3z"/>
	<path class="st0" d="M194.4,377c5.3-7.5,10-10.5,14.3-9.6C205.6,372.8,199.9,373.7,194.4,377z"/>
	<path class="st0" d="M135.8,352.2c0.1,1.6,1.3,1,2.2,1.1c-4.6,2.6-9.1,5.5-14.5,6.7C127.5,357.1,131.2,353.9,135.8,352.2z"/>
	<path class="st1" d="M379.8,445.2c0.1,0.1,0.3,0.1,0.4,0.2C380.1,445.2,380,445.2,379.8,445.2C379.9,445.1,379.8,445.2,379.8,445.2
		z"/>
	<path class="st0" d="M389.1,462.1l-0.1,0.1c0,0,0-0.2,0-0.2C389,462,389.1,462.1,389.1,462.1z"/>
	<path class="st2" d="M252.9,293.2c-0.2,0.2-0.4,0.3-0.6,0.5c0-0.2,0-0.3,0-0.5c0.2,0,0.5,0.1,0.7,0.1
		C253,293.3,252.9,293.2,252.9,293.2z"/>
</g>
</svg>
