<?xml version="1.0" encoding="utf-8"?>
<!-- Generator: Adobe Illustrator 25.3.0, SVG Export Plug-In . SVG Version: 6.00 Build 0)  -->
<svg version="1.1" id="Calque_1" xmlns="http://www.w3.org/2000/svg" xmlns:xlink="http://www.w3.org/1999/xlink" x="0px" y="0px"
	 viewBox="0 0 827.2 158.6" style="enable-background:new 0 0 827.2 158.6;" xml:space="preserve">
<style type="text/css">
	.st0{fill:#202F4E;}
	.st1{fill:#668CAB;}
	.st2{fill:#FFFFFF;}
</style>
<g>
	<path class="st0" d="M549.5-136.5c-1.8-1.4-2-2.2-2.5-3.3c-7.3-16.4-14.7-32.8-21.8-49.3c-1-2.2-2.2-3.5-4.5-4.2
		c-56-17.3-105.5-7.2-147.4,35c-1.3,1.3-2.6,2.5-4.6,2.8c-6,0.8-8.6-2.3-6.3-7.9c5.1-12.3,10.4-24.5,15.6-36.7
		c26.7-63.1,53.3-126.1,79.9-189.2c1.9-4.5,4.9-6.2,9.6-6.2c5-0.1,8.9,0.8,11.2,6.1c32.3,73.2,64.7,146.4,97,219.6
		c4.4,10,4.3,10-6.4,10C555.1-159.9,548.9-152.7,549.5-136.5z M389.9-191.4c1-0.5,2.1-0.8,3.1-1.4c28.3-16.5,58.6-23,91.2-19.6
		c10.9,1.2,21.6,3.5,33.2,6.7c-21.3-46.6-42.1-92.3-63.5-138.9c-21.8,51.5-43,101.6-64.2,151.8c-0.3,0.6-0.6,1.2,0.3,1.6
		c-0.2,0-0.5-0.1-0.7-0.1c0,0.2,0,0.3,0,0.5C389.5-191.1,389.7-191.3,389.9-191.4z"/>
	<path class="st0" d="M245.9-343.6c-5.9,12.8-12.2,25.5-16.6,38.9c-8.8,27.1-11.6,54.8-10.3,83.2c1,23.2,7.8,44.9,16.5,66.1
		c8.1,19.9,19.4,38.1,32.7,55c0.8,1,2.3,1.5,1.9,3.2c-3.4,9.2-4.3,19.3-10.9,27.3c-1.3,1.6-1.4,3.4,1,4.4c3.5,1.4,3.6,3.4,1,5.8
		c-15.2-10.2-28-23-39.4-37.2c-26.9-33.6-43.1-71.7-47.7-114.5c-2.7-25.7-1.3-51.2,5.1-76.3c8.4-33.1,23.5-63,45-89.5
		c0.2-0.2,0.5-0.4,0.8-0.5c0.7,1.1,1.1,2.7,2,3.4c7.1,4.9,9.2,12.7,12,20C240.5-350.1,242.2-346.2,245.9-343.6z"/>
	<path class="st0" d="M261.1-59.5c2.6-2.4,2.5-4.4-1-5.8c-2.4-1-2.3-2.8-1-4.4c6.5-8,7.4-18.1,10.9-27.3
		c6.2,5.6,11.5,11.9,17.7,17.4c23.1,20.8,50.4,30.3,81.1,31.2c15.2,0.4,30.3-1.3,45.3-2.6c40.7-3.7,78.4,4.1,112,28.5l-0.1-0.1
		c-1.6,0.7-2.9-0.1-4.3-0.5c-25.4-7.4-50.8-6.7-76.4-0.8C380.6-8.9,320.1-18.1,265-56.5C263.7-57.5,262.4-58.5,261.1-59.5z"/>
	<path class="st0" d="M245.9-343.6c-3.7-2.6-5.4-6.5-7-10.6c-2.8-7.4-4.9-15.1-12-20c-1-0.7-1.4-2.2-2-3.4
		c38-45.1,86.1-71.8,144.6-79.5c25.3-3.3,50.5-1.4,75.4,4.5c0.7,0.2,1.7,0,1.9,1.5c-2.2,1.7-4.2-0.4-6.3-0.5
		c-71.5-2.8-129.8,23.4-175.2,78.7C257.8-363.7,251.9-353.6,245.9-343.6z"/>
	<path class="st1" d="M591.1-72c0,3.5,0,7,0,10.5c0.1,4.5-2.2,6.3-6.5,6.2c-6-0.1-12-0.2-18-0.1c-4.4,0-6.4-2.3-6.5-6.4
		c-0.1-6.5-0.3-13,0-19.5c0.2-3.9-1.5-5-4.8-4.9c-5.8,0.1-11.6,0.4-17.5,0.3c-6.3-0.1-8-1.9-8.1-8c0-5.5-0.1-11-0.1-16.5
		c0.1-5.3,1.9-7.1,7.3-7.1c6.5-0.1,13-0.2,19.5,0c2.9,0.1,3.8-1,3.7-3.8c-0.2-6.3-0.2-12.7-0.2-19c0-6.3,2-8.3,8.4-8.4
		c5.2,0,10.3,0,15.5,0c5.4,0,7.6,2,7.7,7.5c0.1,6,0,12-0.4,18c-0.3,4.2,0.7,6.1,5.4,5.7c6.1-0.4,12.3-0.2,18.5-0.1
		c5.1,0.1,6.9,1.8,7,6.9c0.1,5.8,0.1,11.7,0,17.5c-0.1,5.2-1.9,7.2-7.2,7.3c-6.5,0.1-13-0.1-19.5-0.4c-3.3-0.2-4.5,1-4.2,4.3
		C591.3-78.6,591.1-75.3,591.1-72C591.1-72,591.1-72,591.1-72z"/>
	<path class="st0" d="M227.4,69.2c13.4-17.9,46.9-17.5,57.6,2.1c13.8-14.9,30.7-19.1,47-11.8c10.2,4.6,15.4,12.9,15.8,23.6
		c0.7,18.1,0.9,36.3,0,54.4c-0.3,6.1-7.3,1.5-11.1,2.7c-2.6,0.8-3.7-0.5-3.7-3.5c0.1-15.3,0-30.6,0-46c0-1.3,0-2.7,0-4
		c-0.2-9.2-3.2-16.9-12.3-20.4c-9.6-3.7-18.7-2.2-26.6,4.7c-4.2,3.7-6.1,8.5-6.1,14.2c0.1,16.7-0.1,33.3,0.1,50
		c0,3.7-0.5,5.2-4.8,5.1c-10.7-0.3-10.6-0.1-10.6-10.7c0-13.2,0-26.3,0-39.5c0-1.5,0-3-0.1-4.5C272,77.4,269.5,70,261,66.5
		c-9.2-3.8-18-2.6-26,3.4c-5.8,4.3-7.6,10.7-7.6,17.7c0,15.8-0.1,31.6,0,47.5c0,2.9,0.2,5.4-3.8,4.8c-0.4-0.1-0.8,0.6-1.2,0.7
		c-8.2,1.9-10.2,0.4-10.2-7.9c-0.1-23.5,0-47-0.2-70.4c0-3,0.7-4.3,3.8-3.9c3.4,0.5,7.9-1.5,10,0.9
		C227.6,61.3,226.9,65.6,227.4,69.2z"/>
	<path class="st0" d="M18.7,140.3c8.1-19,15.9-37.2,23.7-55.3c9.1-21.3,18.3-42.5,27-63.9c2.1-5.2,5.7-4.4,9.6-4.8
		c4-0.4,5.7,1.3,7.3,4.9C101,56,116,90.7,130.9,125.4c2.1,5,4.9,9.5,10.1,11.9c0.9,0.4,1.9,0.8,1.6,2.1c-0.3,1.2-1.5,1.1-2.4,1.3
		c-10.6,2-20.9-3.3-25.5-13.3c-4.3-9.6-8.4-19.2-12.2-29c-1.4-3.5-3.6-5.1-7.1-5.9c-21-4.9-41,3.7-53.4,23.2
		c-3.8,5.9-7.1,12.1-9.1,18.8c-1.4,4.9-3.9,6.8-8.9,5.9C22.6,140.1,21.1,140.3,18.7,140.3z M74.2,34.2c-9.2,21.5-18.1,42.2-27,63
		c0.3,0.5,0.5,1,0.8,1.5c6.8-5.8,14.3-10.1,23-11.8c8.9-1.7,17.7-1.1,27,1.5c-6.7-15.4-13.2-30.2-19.6-44.9
		C77.2,40.6,75.8,37.8,74.2,34.2z"/>
	<path class="st0" d="M491.4,94.2c8.8-7.6,16.9-14.6,25-21.7c3.3-2.8,6.9-5.4,9.6-8.7c5.2-6.4,11.8-6.2,19.5-5.1
		c-11.4,9.4-22.3,18.6-33.4,27.5c-2.7,2.2-2.9,3.3-0.5,6c10.9,12.4,21.5,25,32.3,37.5c2.4,2.8,4.5,5.8,7.7,7.8
		c0.7,0.5,1.5,1,1.2,1.9c-0.2,0.4-1,0.8-1.6,0.8c-5.2,0-10.3,0-15.5-0.1c-2.3-0.1-3.3-2.1-4.6-3.6c-9.8-11.3-19.5-22.8-29.3-34.1
		c-1.4-1.6-2.7-5-5-3.8c-3,1.6-5.9,3.8-5.8,8.5c0.4,9.6-0.1,19.3,0.1,29c0.1,3.6-1.1,4.4-4.5,4.4c-10.8,0-10.8,0.1-10.8-10.5
		c0-36.1,0-72.3-0.2-108.4c0-4,0.7-5.5,5.1-5.3c10.4,0.3,10.4,0.1,10.4,10.5c0,20.8,0,41.6,0.1,62.5
		C491.2,90.5,491.3,91.9,491.4,94.2z"/>
	<path class="st0" d="M621.6,129.6c-11.2,12.3-24.7,15.1-39.9,10.9c-10.4-2.8-17.2-10.6-17.9-19.8c-0.9-10.9,4.2-18.6,13.6-23.5
		c12.1-6.4,25.4-7.6,38.8-7.5c5,0,5.6-1.7,5.4-5.9c-0.7-11.4-7.2-18.5-18.6-19.6c-9.5-0.9-18.1,1.7-25.7,7.6
		c-1.6,1.3-3.1,3.9-5.6,0.8c-2.4-2.9-0.6-4.5,1.4-6.2c10.8-9.6,23.9-11.3,37.5-9.6c17.2,2.2,25.8,12.3,26,29.7c0.2,13,0,26,0.2,39
		c0,4.5,0.1,9.2,5.5,11.2c1.1,0.4,1.3,1.4,0.9,2.5c-0.4,1.2-1.5,1.1-2.4,1.3C631.3,142.6,625.7,139.5,621.6,129.6z M621.6,109.7
		c0-4.9,0-8.2,0-11.6c0-1.5-0.2-2.6-2.1-2.5c-11,0.3-22.1,0.6-31.8,6.4c-11,6.6-11.7,22.7-1.4,29.3c10.4,6.7,28.2,2,34.1-8.9
		C622.7,117.8,621.2,112.9,621.6,109.7z"/>
	<path class="st0" d="M430.3,129.3c-7,7.8-15,12-24.8,12.7c-8,0.6-15.7-0.6-22.6-4.8c-13.4-8.2-14.7-26.5-2.5-36.5
		c8.6-7,19.1-9.2,29.7-10.3c5.6-0.6,11.3-0.8,16.9-0.9c2.1-0.1,2.8-0.6,2.9-2.8c0.9-13.5-6.6-22-20.1-22.7c-9.2-0.5-17.4,2.1-24.5,8
		c-1.7,1.4-3,3.1-5.3,0.6c-2.2-2.5-1.1-4,0.8-5.9c6.3-6,14-9,22.4-10.1c8.5-1.1,16.9-0.8,25,2.6c11.7,4.8,16.3,14.2,16.5,26.1
		c0.2,12.5,0,25,0.1,37.5c0,5.4-0.5,11.1,6.1,14c2,0.9,1.2,2.8-0.9,3.6C441.9,143.6,433.3,139.1,430.3,129.3z M430,109
		c-0.1-14.6-0.1-14.6-13.9-12.7c-3.1,0.4-6.3,0.9-9.3,1.5c-5.1,1.1-9.8,3-13.8,6.6c-9.2,8.4-7,23.4,4.1,28.2c10,4.3,24,0.3,30.5-8.4
		C431.4,119.2,429.4,113.6,430,109z"/>
	<path class="st0" d="M773.8,99.4c-9.7,0-19.3,0.2-29-0.1c-3.6-0.1-4.5,1-4.1,4.5c1.7,12.7,6.6,23.2,19.4,28
		c13.5,5,26.1,2.7,37.6-6.1c1.6-1.2,3-4.3,5.5-1c1.4,1.8,1.7,3.1-0.2,5.1c-13.9,14.3-42.1,16.7-59.8,5.1
		c-16.7-11-23.3-33.8-15.4-53.2c6.6-16.2,24-26.3,43.3-25.3c16.8,0.9,30.4,11.3,35,26.6c0,0.2,0.1,0.3,0.2,0.5c1.3,5,3.4,11,0.8,15
		c-1.8,2.8-8.1,0.7-12.4,0.9c-3.5,0.2-7,0-10.5,0C780.8,99.4,777.3,99.4,773.8,99.4z M767.3,92.1C767.3,92.2,767.3,92.2,767.3,92.1
		c7.5,0,15,0,22.5,0c1.7,0,3.1,0.3,3.3-2.4c0.5-10.1-7.3-21.7-17-24.6c-17.1-5.1-33.4,6.3-35,24.3c-0.3,3.2,1.4,2.7,3.2,2.7
		C752,92.1,759.7,92.1,767.3,92.1z"/>
	<path class="st0" d="M172.7,70.5c0,15,0,30,0,44.9c0,2.5,0,5,0.3,7.5c1.2,9.2,6.7,13,15.7,11c1.7-0.4,3.3-1.1,4.1,1.1
		c0.7,2.1-0.2,3.3-2.1,4.4c-14,8.1-31.6-0.6-32.7-16.6c-0.7-10.3-0.4-20.6-0.4-30.9c-0.1-23.8,0-47.6-0.2-71.4
		c0-3.5,0.8-4.4,4.3-4.4c10.8,0.2,10.8,0,10.9,10.9C172.7,41.6,172.7,56,172.7,70.5C172.7,70.5,172.7,70.5,172.7,70.5z"/>
	<path class="st0" d="M636.1-20.7c-17.7,0-33.6-4.5-45.3-18.9c-1.2-1.4-3.4-3.2-2.9-5.1c0.9-2.9,5.4-1.5,8.1-1.9
		c7.5-1.1,5.5-10.9,5.7-18.6c0.3-10.4,0.3-10.3,10.3-10.3c2.7,0,3.7,1,4.7,3.2c3.6,8.6,6.6,17.4,11.3,25.5
		c4.8,8.3,11,15.1,20.3,18.2c2.2,0.7,3.6,2,3.3,4.3c-0.3,2.3-2.2,2.7-4.1,2.8C643.7-21.2,639.9-21,636.1-20.7z"/>
	<path class="st0" d="M682.6,69.9c2-0.9,2.6-2.7,3.7-4.1c6.5-8,15.1-10.5,25-9.2c3.5,0.5,5.2,1.6,4,5.8c-1.2,4.3-1.5,6.8-7.5,5.1
		c-13.8-3.8-25,5.5-25.2,20.2c-0.2,15.8-0.2,31.6,0.1,47.4c0.1,4.1-1,5.4-5.2,5.2c-10.4-0.3-10.3-0.1-10.3-10.4
		c-0.1-22.6-0.1-45.2-0.4-67.9c0-3,0.5-4,3.7-4c10.1,0,10-0.2,11.5,9.9C682.2,68.6,682.4,69.2,682.6,69.9z"/>
	<path class="st0" d="M516.9-39.5c-10.3-5.4-20.2-11.4-31.2-15.5c-23.4-8.6-47.3-10.1-71.7-7.1c-9.6,1.2-19.1,3.2-28.8,2.3
		c-8.9-0.8-13.3-6.8-10.7-14.1c1-2.9,2.3-5.8,4.5-8.2c0.4-0.5,0.8-1.1,1.2-1.6c3.8-5.1,3.6-6.4-1.3-10.7c0.8-0.7,1.6-1.4,2.5-2
		c6,2,7.6,5.4,4.8,10.7c-1.6,2.9-3.7,5.5-5.5,8.2c-2,3.1-4.1,6.5-1.9,10.1c2.3,3.7,6.3,4,10.2,3.4c9.1-1.3,17.8-4.2,26.5-6.7
		c39.1-11.2,72-0.7,99.5,28.4C515.8-41.5,516.9-40.8,516.9-39.5L516.9-39.5z"/>
	<path class="st1" d="M342.3-303.6c-6.7,1.5-12.3,2.7-17.9,3.8c-6,1.2-9.2,4.9-10.5,10.6c-1.2,5.5-2.3,11-3.9,16.7
		c-0.7-4.9-2-9.7-2.8-14.6c-1.4-8.2-6.2-12.5-14.2-13.7c-4.7-0.7-9.3-1.7-15.1-2.9c7-1.4,12.8-2.5,18.6-3.8
		c5.6-1.2,8.9-4.8,10.3-10.3c1.4-5.6,2.5-11.2,3.8-17c1.1,5.3,2.2,10.5,3.2,15.8c1.2,6.7,4.9,10.6,11.7,11.8
		C330.7-306.2,335.9-304.9,342.3-303.6z"/>
	<path class="st0" d="M381.4-96.5c-0.8,0.7-1.6,1.4-2.5,2c-3-3-4.6-7.5-7.7-9.8c-4.8-3.6-6.7-7.2-5.5-13c0.3-1.3-2.1-1.1-3.4-1.2
		c-3.8-0.2-7.6-0.1-11.4-1.1c-3.5-0.9-6.6-2.4-8.8-5.3c-11.6-15.6-27.4-17.9-45.1-14c-7.7,1.7-15,4.2-22.1,7.5
		c-0.9-0.1-2.1,0.5-2.2-1.1c11.3-6.1,22.9-11.4,36-12.6c14.6-1.3,27,2.6,35.9,15c4.1,5.7,10,7.3,16.6,7.5c8.9,0.2,8.9,0.2,7.7,9
		c-0.1,1-0.7,2.4,0.2,2.8C375.5-107.9,377-100.9,381.4-96.5z"/>
	<path class="st1" d="M412.3,178.7c-19.1,0-38.3,0-57.4,0c-1.3,0-2.7,0-4,0c-0.9,0-1.6-0.5-1.6-1.5c0-0.9,0.7-1.5,1.6-1.6
		c1.2-0.1,2.3-0.1,3.5-0.1c38.3,0,76.5,0,114.8,0c0.8,0,1.7,0,2.5,0c1.3,0.1,3-0.2,2.8,1.8c-0.2,1.6-1.7,1.3-2.8,1.3
		c-11.8,0-23.6,0-35.4,0.1C428.3,178.7,420.3,178.7,412.3,178.7z"/>
	<path class="st1" d="M356.1-339c5.6-0.9,9.2-3.5,9.7-9.7c0.7,5.8,3.5,9.2,9.5,9.6c-5.1,1.1-8.8,3.3-9.3,9.4
		C364.9-335.5,361.8-338.5,356.1-339z"/>
	<path class="st1" d="M340.5-262.2c5-0.6,6.9-3.8,7.9-8.1c0.7,4.6,3.2,7.3,7.8,8.2c-4.5,0.9-7.1,3.1-7.8,7.8
		C347.2-258.4,345.1-261.4,340.5-262.2z"/>
	<path class="st0" d="M331.4-107.6c5.3-7.5,10-10.5,14.3-9.6C342.6-111.8,336.9-110.9,331.4-107.6z"/>
	<path class="st0" d="M272.8-132.4c0.1,1.6,1.3,1,2.2,1.1c-4.6,2.6-9.1,5.5-14.5,6.7C264.5-127.5,268.2-130.7,272.8-132.4z"/>
	<path class="st1" d="M516.9-39.4c0.1,0.1,0.3,0.1,0.4,0.2C517.2-39.3,517-39.4,516.9-39.4C516.9-39.5,516.9-39.4,516.9-39.4z"/>
	<path class="st0" d="M526.1-22.5l-0.1,0.1c0,0,0-0.2,0-0.2C526-22.6,526.1-22.5,526.1-22.5z"/>
	<path class="st2" d="M389.9-191.4c-0.2,0.2-0.4,0.3-0.6,0.5c0-0.2,0-0.3,0-0.5c0.2,0,0.5,0.1,0.7,0.1
		C390-191.3,389.9-191.4,389.9-191.4z"/>
</g>
</svg>
