<?xml version="1.0" encoding="utf-8"?>
<!-- Generator: Adobe Illustrator 25.3.0, SVG Export Plug-In . SVG Version: 6.00 Build 0)  -->
<svg version="1.1" id="Calque_1" xmlns="http://www.w3.org/2000/svg" xmlns:xlink="http://www.w3.org/1999/xlink" x="0px" y="0px"
	 viewBox="0 0 647.6 632.2" style="enable-background:new 0 0 647.6 632.2;" xml:space="preserve">
<style type="text/css">
	.st0{fill:#F2F2F2;}
	.st1{fill:#3F3D56;}
	.st2{fill:#123B6D;}
	.st3{fill:#FFFFFF;}
	.st4{fill:#E6E6E6;}
</style>
<path class="st0" d="M398,168.3H249.7c-7,0-12.7,5.7-12.7,12.7v329.6l-1.7,0.5l-36.4,11.1c-3.6,1.1-7.4-0.9-8.5-4.5L82.2,164.3
	c-1.1-3.6,0.9-7.4,4.5-8.5l56.1-17.2l162.5-49.7l56.1-17.2c3.6-1.1,7.4,0.9,8.5,4.5c0,0,0,0,0,0l27.7,90.4L398,168.3z"/>
<path class="st1" d="M430.4,166.6L397.1,57.7c-2.3-7.6-10.4-11.9-18-9.6c0,0,0,0,0,0l-78.8,24.1L137.7,122l-78.8,24.1
	c-7.6,2.3-11.9,10.4-9.6,18l113.9,372.2c1.9,6.1,7.5,10.2,13.8,10.2c1.4,0,2.9-0.2,4.2-0.6l54-16.5l1.7-0.5v-1.8l-1.7,0.5
	l-54.5,16.7c-6.7,2.1-13.8-1.7-15.9-8.5L50.9,163.7c-2.1-6.7,1.7-13.8,8.4-15.9c0,0,0,0,0,0l78.8-24.1l162.5-49.7l78.8-24.1
	c1.2-0.4,2.5-0.6,3.7-0.6c5.6,0,10.5,3.7,12.2,9l33.2,108.4l0.5,1.7h1.8L430.4,166.6z"/>
<path class="st2" d="M152.9,156.1c-3.4,0-6.3-2.2-7.3-5.4l-10.9-35.8c-1.2-4,1-8.3,5.1-9.6c0,0,0,0,0,0l149.5-45.8
	c4-1.2,8.3,1,9.6,5.1l10.9,35.8c1.2,4-1,8.3-5.1,9.6l-149.5,45.8C154.4,156,153.6,156.1,152.9,156.1z"/>
<circle class="st2" cx="210.2" cy="68.7" r="17"/>
<circle class="st3" cx="210.2" cy="68.7" r="10.8"/>
<path class="st4" d="M560.8,542.2H273.5c-4,0-7.2-3.2-7.2-7.2V190.8c0-4,3.2-7.2,7.2-7.2h287.2c4,0,7.2,3.2,7.2,7.2V535
	C568,539,564.7,542.2,560.8,542.2z"/>
<path class="st1" d="M428.6,166.6H249.7c-8,0-14.4,6.5-14.4,14.4v346.5l1.7-0.5V181c0-7,5.7-12.7,12.7-12.7h179.4L428.6,166.6z
	 M584.6,166.6H249.7c-8,0-14.4,6.5-14.4,14.4v389.2c0,8,6.5,14.4,14.4,14.4h334.8c8,0,14.4-6.5,14.4-14.4V181
	C599,173.1,592.5,166.6,584.6,166.6z M597.3,570.3c0,7-5.7,12.7-12.7,12.7H249.7c-7,0-12.7-5.7-12.7-12.7V181
	c0-7,5.7-12.7,12.7-12.7h334.8c7,0,12.7,5.7,12.7,12.7V570.3z"/>
<path class="st2" d="M495.3,204H339c-4.2,0-7.6-3.4-7.6-7.6v-37.4c0-4.2,3.4-7.6,7.6-7.6h156.4c4.2,0,7.6,3.4,7.6,7.6v37.4
	C503,200.6,499.5,204,495.3,204z"/>
<circle class="st2" cx="417.1" cy="136.9" r="17"/>
<circle class="st3" cx="417.1" cy="136.9" r="10.4"/>
</svg>
