<?xml version="1.0" encoding="utf-8"?>
<!-- Generator: Adobe Illustrator 25.3.0, SVG Export Plug-In . SVG Version: 6.00 Build 0)  -->
<svg version="1.1" id="Calque_1" xmlns="http://www.w3.org/2000/svg" xmlns:xlink="http://www.w3.org/1999/xlink" x="0px" y="0px"
	 viewBox="0 0 777 767" style="enable-background:new 0 0 777 767;" xml:space="preserve">
<style type="text/css">
	.st0{fill:#F2F2F2;}
	.st1{fill:#FFFFFF;}
	.st2{fill:#CCCCCC;}
	.st3{fill:#123B6D;}
	.st4{fill:#3F3D56;}
	.st5{fill:#FFB8B8;}
	.st6{fill:#2F2E41;}
</style>
<path class="st0" d="M760.4,456.9c-3.9,24.9-16,49-36,64.3c-19.7,15-44.9,20.4-69.3,25c-29.2,5.5-58.5,10.6-87.9,15.1
	c-4.2,0.7-8.3,1.3-12.5,1.9h-171c-0.2-0.2-0.4-0.5-0.5-0.7c-0.3-0.4-0.6-0.8-0.8-1.2c-0.2-0.2-0.3-0.5-0.5-0.7h107.3
	c6.3,0,11.5-5.1,11.5-11.5V405.9c0.7-2.2,1.3-4.4,1.9-6.6c2.7-10.3,4.5-20.8,5.3-31.4c0.6-7.4,0.8-14.8,0.6-22.2
	c-0.4-20.4-3-40.7-5.9-61c-0.2-1.5-0.4-3-0.6-4.5c-2-14.1-3.9-29.3,3.2-41.7c8.1-14.1,26.1-20,42.3-18.5
	c29.1,2.6,53.7,24.9,66.4,51.2c12.7,26.3,15.6,56.3,16.8,85.5c0.6,15.5,0.5,31.7-1.6,47.2c7.3-16.7,14.6-33.4,21.9-50.1
	c3.9-8.9,8-18.1,15.2-24.6c15.1-13.6,40.1-10.9,56.2,1.5c16.1,12.4,25,32.1,30.9,51.6C760.6,406.4,764.3,432,760.4,456.9z"/>
<path class="st1" d="M695.9,321.8c10.6,18.7,15.4,40.2,15.3,61.6c-0.2,21.2-4.9,42.2-13.8,61.5c-8.1,17.4-19.3,33.1-33.1,46.4
	c-13.7,13.3-29.9,23.6-47.6,30.4c-20.6,7.7-42.9,9.8-64.6,6.1c-3-0.5-6-1.1-9-1.9c-1.8-0.4-2.6,2.3-0.8,2.8
	c22.6,5.6,46.3,4.9,68.5-2c18.5-6,35.6-15.7,50.2-28.5c14.8-12.9,27-28.5,36-45.9c9.9-19.1,15.6-40,16.9-61.4
	c1.3-21.7-2.4-43.9-11.8-63.6c-1.1-2.4-2.4-4.7-3.7-7c-0.4-0.7-1.3-0.9-2-0.4C695.8,320.3,695.6,321.2,695.9,321.8L695.9,321.8z"/>
<path class="st1" d="M542.9,219.7c11.7,21.6,20.8,44.5,27.2,68.2c12.7,47.5,14.6,97.3,5.6,145.7c-4.5,24.2-11.9,47.7-21.9,70.2
	c-10,22.3-24.4,45.7-49.1,53.5c-2.8,0.9-5.6,1.5-8.5,1.9c-1.8,0.3-1.1,3,0.8,2.8c25.5-3.5,43.2-24.7,54.3-46.2
	c11.5-22.3,19.7-46.6,25.1-71.1c10.8-48.8,10.4-99.5-1.1-148.2c-5.7-24.2-14.3-47.7-25.5-70c-1.4-2.8-2.9-5.5-4.4-8.3
	C544.5,216.6,542,218,542.9,219.7z"/>
<path class="st2" d="M422.3,215.5H249.6c-7.3,0-13.2,5.9-13.2,13.2v86.5H263c4,0,7.6,2,9.7,5.4l9.2,14.7l8.8,14l1.7,2.6l10.1,16
	l0.1,0.2h132.9V228.7C435.5,221.4,429.6,215.5,422.3,215.5z"/>
<path class="st1" d="M353.8,241.9h-85.5c-4.7,0-8.6,3.8-8.6,8.6c0,4.7,3.8,8.6,8.6,8.6h85.5c4.7,0,8.6-3.8,8.6-8.6
	C362.4,245.7,358.6,241.9,353.8,241.9z"/>
<path class="st1" d="M401.3,283.9H269.1c-5.2,0-9.3,4.2-9.3,9.3s4.2,9.3,9.3,9.3h132.2c5.2,0,9.3-4.2,9.3-9.3
	S406.4,283.9,401.3,283.9z"/>
<path class="st1" d="M409.7,321.9c-1.5-3.3-4.8-5.4-8.4-5.4H269.1c-0.2,0-0.4,0-0.6,0c1.7,0.9,3.2,2.3,4.2,4l9.2,14.7h119.4
	c5.1,0,9.3-4.2,9.3-9.3C410.6,324.5,410.3,323.2,409.7,321.9z"/>
<path class="st1" d="M410.5,357.3c-0.6-4.6-4.6-8.1-9.2-8.1H290.7l1.7,2.6l10.1,16h98.8c1.9,0,3.8-0.6,5.4-1.7
	c2.5-1.7,3.9-4.6,3.9-7.6C410.6,358.1,410.6,357.7,410.5,357.3z"/>
<path class="st3" d="M516.1,290l-13.5-5.3l-67.1-26.2l-80.3-31.3c-6.8-2.6-14.5,0.7-17.1,7.5l-2.8,7.2l-6.7,17.1l-9.7,24.9
	l-7.3,18.7l-5.5,14l-7.3,18.7l-5.5,14l-0.2,0.4l-0.9,2.2l10.1,16l0.1,0.2h186.6c3.5,0,6.8,1.6,8.9,4.3l0.8-2l9.6-24.7l15.1-38.6
	C526.2,300.3,522.9,292.6,516.1,290z"/>
<path class="st1" d="M442.7,289.7l-7.2-2.8L363,258.6c-4.4-1.7-9.4,0.5-11.1,4.9c-1.7,4.4,0.5,9.4,4.9,11.1l23.9,9.3l29.6,11.6
	l25.2,9.8l1,0.4c4.4,1.7,9.4-0.5,11.1-4.9C449.2,296.4,447.1,291.4,442.7,289.7z"/>
<path class="st1" d="M471.6,346.1L435.5,332l-25.8-10.1l-13.8-5.4l-35.9-14l-11.7-4.5c-4.5-1.8-9.6,0.2-11.8,4.5
	c-0.1,0.2-0.2,0.5-0.3,0.7c-1.9,4.8,0.5,10.2,5.3,12.1c0,0,0,0,0,0l3,1.2l47.8,18.7l43.1,16.8l29.3,11.4c1.1,0.4,2.2,0.6,3.4,0.6
	c5.2,0,9.3-4.2,9.3-9.3C477.6,351,475.2,347.5,471.6,346.1L471.6,346.1z"/>
<path class="st1" d="M435.5,367.1l-2.3-0.9l-22.7-8.8l-20.7-8.1l-35.9-14l-17.4-6.8c-4.8-1.9-10.2,0.5-12.1,5.3
	c-1.9,4.8,0.5,10.2,5.3,12.1c0,0,0,0,0,0l8.7,3.4l43.4,16.9l4.5,1.7l0.5,0.2h51.3L435.5,367.1z"/>
<path class="st1" d="M347.8,367.9l-4.5-1.7l-18.6-7.3c-4.8-1.9-10.2,0.5-12.1,5.3c-0.3,0.6-0.4,1.3-0.5,2c-0.1,0.6-0.1,1.2-0.1,1.7
	c0,0.1,0,0.1,0,0.2h36.3L347.8,367.9z"/>
<path class="st4" d="M386.3,367.9l-4.5-1.7h-69.8c-0.1,0.6-0.1,1.2-0.1,1.7h-9.5l0.1,0.2h84.2L386.3,367.9z M386.3,367.9h-83.9
	l0.1,0.2h84.2L386.3,367.9z M386.3,367.9h-83.9l0.1,0.2h84.2L386.3,367.9z M386.8,368.1l-0.5-0.2h-83.9l0.1,0.2H386.8z M218.5,560.6
	c-6.3,0-11.5-5.1-11.5-11.5V326.7c0-6.3,5.1-11.5,11.5-11.5h17.9v-1.9h-17.9c-7.4,0-13.4,6-13.4,13.4v222.4c0,5.3,3.1,10,7.9,12.2
	h169.4c-0.2-0.2-0.3-0.5-0.5-0.7H218.5z M498.9,370.3c-2.5-2.7-6-4.2-9.7-4.2H303.6l-10.4-16.5l-0.3-0.4l-8.8-14l-9.9-15.7
	c-2.5-3.9-6.7-6.3-11.3-6.3h-44.5c-7.4,0-13.4,6-13.4,13.4v222.4c0,5.3,3.1,10,7.9,12.2c1.7,0.8,3.6,1.2,5.5,1.2h270.6
	c1.9,0,3.8-0.4,5.6-1.2c4.8-2.2,7.8-6.9,7.9-12.2V379.6C502.6,376.1,501.3,372.8,498.9,370.3L498.9,370.3z M500.6,549.1
	c0,6.3-5.1,11.5-11.5,11.5H218.5c-6.3,0-11.5-5.1-11.5-11.5V326.7c0-6.3,5.1-11.5,11.5-11.5H263c4,0,7.6,2,9.7,5.4l9.2,14.7l8.8,14
	l1.7,2.6l10.1,16l0.1,0.2h186.6c6.3,0,11.5,5.1,11.5,11.5V549.1z M386.3,367.9h-83.9l0.1,0.2h84.2L386.3,367.9z M386.3,367.9h-83.9
	l0.1,0.2h84.2L386.3,367.9z M386.3,367.9h-83.9l0.1,0.2h84.2L386.3,367.9z M386.3,367.9l-4.5-1.7h-78.2l-10.4-16.5l-0.9,2.2l10.1,16
	l0.1,0.2h84.2L386.3,367.9z"/>
<polygon class="st5" points="165.9,447.6 160.4,459.2 113.4,443.4 121.5,426.4 "/>
<path class="st6" d="M152.6,466.9l11.1-23.3l0,0l14,6.7l0,0l-17.3,36.2l0,0l-1.1-0.5C152.2,482.5,149.2,474,152.6,466.9z"/>
<polygon class="st5" points="177,550.4 164.2,550 163.7,500.4 178.6,501.3 "/>
<path class="st6" d="M154,546l25.8,0.9l0,0l-0.5,15.5l0,0l-40.1-1.4l0,0l0-1.2C139.5,551.9,146.1,545.8,154,546z"/>
<path class="st6" d="M197.5,342.7c0,0-39-9.9-56.7,4.7l-9.9,28.6l-39.6,56.2l57.3,34.4l10.4-26L134,428l30.2-26L159,539.4l19.8,3.1
	C178.8,542.5,222.5,372.9,197.5,342.7z"/>
<path class="st3" d="M138.3,351.6l0.5-0.8c5-8.9,4.2-23.4,2.6-34c-1.3-8.9-1.3-24.5-1-36.1c0.1-8,5.8-14.9,13.7-16.6
	c11.9-2.5,26.5-3,34.1-3.1l0,0.5l0-0.5c4.3,0,7.8,3.4,8,7.7c0.2,12.5,0.2,35.2-2.9,47.4c-4.6,18.1,2.6,30.4,2.7,30.5l0.4,0.7
	L138.3,351.6z"/>
<path class="st5" d="M118.2,401.5c4.8-2.3,6.8-8.1,4.5-12.9c-0.2-0.5-0.5-1-0.9-1.5l22-95h-16.7l-19.4,93.1
	c-4.1,3.4-4.7,9.5-1.3,13.6C109.3,402.4,114.2,403.5,118.2,401.5z"/>
<path class="st5" d="M252.2,308l-36.8-34.8l-9.9,13.9l24.8,21.9l-32.6,25.9c-0.2,0-0.5,0-0.7,0c-5.8,0-10.4,4.7-10.4,10.4
	c0,5.8,4.7,10.4,10.4,10.4c5.2,0,9.7-3.9,10.4-9l0.1,0.1L252.2,308z"/>
<path class="st3" d="M151.8,265.2c0,0-23-3.8-25,13.9c-2.1,17.7-3.1,17.7-3.1,17.7s16.7-3.1,20.8,1
	C148.6,302.1,151.8,265.2,151.8,265.2z"/>
<path class="st3" d="M186.1,262.5c0,0,18.7-3.1,27.1,5.2c8.3,8.3,12.5,10.4,12.5,10.4s-18.7,10.4-11.5,19.8c0,0-19.8-9.4-22.9-6.2
	S186.1,262.5,186.1,262.5z"/>
<path class="st6" d="M169.6,202.1c-5.9-4.7-7.5-13.8-4-20.6c3.4-6.7,11.2-10.8,18.7-10.5c7.6,0.3,14.7,4.6,19.1,10.8
	c6.2,8.7,7.4,20.7,15.6,27.5c7.4,6.1,18,6,27.6,5.5c3.2-0.2,6.6-0.4,9.5-1.8c2.9-1.4,5.3-4.5,4.9-7.7c2.4,3.8,1,9.2-2.2,12.3
	c-3.2,3.1-7.8,4.5-12.3,5c-16.1,1.7-31.8-5.2-41.5-18.2c-3.3-4.6-5.9-10-10.5-13.3s-12.2-3.6-15,1.3c-1.4,2.4-1.3,5.5-2.5,8
	c-1.3,2.5-5.4,3.9-6.7,1.3"/>
<circle class="st6" cx="168.7" cy="223.4" r="28.8"/>
<circle class="st5" cx="168.5" cy="230.9" r="23.6"/>
<path class="st6" d="M147,213.6c3.2,0.7,2.2,6.1,4.7,8.2c2.3,1.9,5.6-0.1,8.5-0.8c3.6-0.9,7.4,0.4,10.8,2.1
	c3.4,1.7,6.6,3.7,10.3,4.5s8-0.1,10.1-3.2c2-3,1.2-7-0.3-10.3c-5.6-11.9-19.8-16.9-31.7-11.3c-4.7,2.3-8.6,6-11,10.7"/>
<path class="st4" d="M703.3,562.3c0,0.5-0.4,1-1,1H16c-0.5,0-1-0.4-1-1s0.4-1,1-1h686.4C702.9,561.3,703.3,561.7,703.3,562.3z"/>
</svg>
