<?xml version="1.0" encoding="utf-8"?>
<!-- Generator: Adobe Illustrator 25.3.0, SVG Export Plug-In . SVG Version: 6.00 Build 0)  -->
<svg version="1.1" id="Calque_1" xmlns="http://www.w3.org/2000/svg" xmlns:xlink="http://www.w3.org/1999/xlink" x="0px" y="0px"
	 viewBox="0 0 743 743" style="enable-background:new 0 0 743 743;" xml:space="preserve">
<style type="text/css">
	.st0{fill:#F2F2F2;}
	.st1{fill:#090814;}
	.st2{fill:#ED9DA0;}
	.st3{fill:#202F4E;}
</style>
<path class="st0" d="M685,371.5c0,91.5-39.2,173.8-101.7,231.1c-10.9,10-22.6,19.3-34.9,27.7c-2.7,1.9-5.5,3.7-8.3,5.5
	c-2.6,1.7-5.3,3.3-7.9,4.9c-2.1,1.3-4.3,2.5-6.4,3.7c-7.3,4.2-14.8,8-22.5,11.6l0,0c-0.9,0.4-1.7,0.8-2.6,1.2
	c-0.5,0.2-1.1,0.5-1.6,0.7c-2.5,1.1-5,2.2-7.5,3.2c-1,0.4-2.1,0.8-3.1,1.3c-10,4.1-20.3,7.6-30.9,10.6c-3.8,1.1-7.7,2.1-11.5,3
	c-17.2,4.2-35,7-53.1,8.2c-7.1,0.5-14.3,0.7-21.5,0.7c-25.2,0-49.7-3-73.1-8.6c-2.5-0.6-4.9-1.2-7.3-1.9c-2.4-0.6-4.9-1.3-7.3-2
	c-1.8-0.5-3.6-1.1-5.5-1.6c-1.2-0.4-2.4-0.8-3.6-1.1c-8.5-2.7-16.8-5.8-24.9-9.3c-0.2-0.1-0.3-0.1-0.5-0.2
	c-17-7.2-33.3-15.9-48.7-25.9l0,0c-4.1-2.6-8-5.4-11.9-8.2C109.5,569.3,58,476.4,58,371.5C58,198.4,198.4,58,371.5,58
	S685,198.4,685,371.5z"/>
<path class="st1" d="M305.2,380.2c0,0,20.1,72.6,0.3,93.3c-19.9,20.7-15.3,36.6-15.3,36.6s-50.2,16-57.5-43.3l12.2,45.3
	c0,0-47.1-3.7-33.3-62.6c13.8-58.9,30.8-58.9,21.1-77c-9.7-18-9.7-109.6,45.7-114.4c55.4-4.8,48.2,24.1,48.2,24.1L305.2,380.2
	L305.2,380.2z"/>
<path class="st2" d="M534.9,646.6c-8.4,4.4-21.8,7.6-31.7,9.5l0,0c-0.9,0.4-1.7,0.8-2.6,1.2c-0.5,0.2-1.1,0.5-1.6,0.7
	c-2.5,1.1-5,2.2-7.5,3.2c-1,0.4-2.1,0.8-3.1,1.3l2.8-2.8l1.8-1.9l31.7-32.2c0,0,3,5.8,7.4,15.2C533.1,642.5,534,644.5,534.9,646.6z"
	/>
<path class="st2" d="M309.6,389.7c-2.3-48.8,35.4-90.1,84.2-92.4s90.1,35.4,92.4,84.2c1.8,39.6-22.6,74.2-57.9,87.2l-11.8,113.6
	l-90.4-68.5c0,0,17.7-24.8,26.5-52.3C328.1,446.8,311.1,420.5,309.6,389.7L309.6,389.7z"/>
<path class="st3" d="M542.3,640c-1,2.4-3.7,4.6-7.3,6.6c-8.4,4.4-21.8,7.6-31.7,9.5l0,0c-4.3,0.8-8,1.4-10.2,1.7
	c-0.4,0.1-0.7,0.1-1,0.1c-0.6,0.1-1,0.1-1.1,0.2h-0.1c0.1,0.5,0.3,1,0.4,1.5s0.2,1,0.3,1.6c-1,0.4-2.1,0.8-3.1,1.3
	c-10,4.1-20.3,7.6-30.9,10.6c-3.8,1.1-7.7,2.1-11.5,3c-17.2,4.2-35,7-53.1,8.2c-7.1,0.5-14.3,0.7-21.5,0.7c-25.2,0-49.7-3-73.1-8.6
	c-2.5-0.6-4.9-1.2-7.3-1.9c-2.4-0.6-4.9-1.3-7.3-2c-1.8-0.5-3.6-1.1-5.5-1.6c-1.2-0.4-2.4-0.8-3.6-1.1l-28.8-128.6l91.3-50.6
	c0.7,0.5,1.5,0.9,2.2,1.4c91.6,58.1,84.5,13,84.5,13s0.2,0.1,0.6,0.4c4.4,2.7,32.4,19.3,47.9,23.8c14.9,4.2,57.7,87,67.8,106.7
	C541.5,638.5,542.3,640,542.3,640z"/>
<path class="st1" d="M489.7,658.2c0-0.4-2.9-38.4-12.3-52.4c-9.8-14.7-7.5-36-7.4-36.9l2.4,0.3c0,0.2-2.2,21.4,7,35.3
	c9.7,14.6,12.6,52,12.7,53.6L489.7,658.2z"/>
<path class="st1" d="M445.9,283.1c0,0-68.7-46.6-119.3-0.9s-54,129.8,26,179.3l-6.7-34.8c0,0-19.3-28.9,12-26.5s26.5-26.5,26.5-26.5
	s67.1-30.2,67.3-51.3l25,39.3C476.7,361.8,526.7,320,445.9,283.1L445.9,283.1z"/>
<path class="st3" d="M341.1,282.2c0,0-12.1-28.1-27.7-6.8s-3.8,36.6-3.8,36.6L341.1,282.2z"/>
<path class="st2" d="M249.3,660.3c-17-7.2-33.3-15.9-48.7-25.9l0,0c3.3-5.6,5.3-8.8,5.3-8.8L249.3,660.3z"/>
<path class="st3" d="M305.5,617.7l-27.2,53.2c-1.2-0.4-2.4-0.8-3.6-1.1c-8.5-2.7-16.8-5.8-24.9-9.3c-0.2-0.1-0.3-0.1-0.5-0.2
	c-17-7.2-33.3-15.9-48.7-25.9l0,0c-4.1-2.6-8-5.4-11.9-8.2c13.9-31.4,57.2-85,57.2-85l25.3,1.2L305.5,617.7z"/>
</svg>
