<?xml version="1.0" encoding="utf-8"?>
<!-- Generator: Adobe Illustrator 25.3.0, SVG Export Plug-In . SVG Version: 6.00 Build 0)  -->
<svg version="1.1" id="Calque_1" xmlns="http://www.w3.org/2000/svg" xmlns:xlink="http://www.w3.org/1999/xlink" x="0px" y="0px"
	 viewBox="0 0 716.9 800" style="enable-background:new 0 0 716.9 800;" xml:space="preserve">
<style type="text/css">
	.st0{fill:#58AD32;}
	.st1{fill:#E6E6E6;}
	.st2{fill:#3F3D56;}
	.st3{fill:#CACACA;}
	.st4{opacity:0.1;enable-background:new    ;}
	.st5{fill:#ED9DA0;}
	.st6{fill:#090814;}
</style>
<g transform="translate(-560 -200.022)">
	<path class="st0" d="M960.1,284.1l291.9-28.7c3.4-0.4,6.6-1.4,9.6-3.1c3-1.8,5.7-4.1,7.9-6.8c4.8-5.8,7.4-13.1,7.4-20.6
		c0-1.8-0.2-3.7-0.5-5.5c-0.3-1.7-0.8-3.4-1.4-5c-0.6-1.6-1.4-3.1-2.3-4.5c-0.9-1.4-2-2.7-3.2-3.9c-1.2-1.1-2.4-2.1-3.8-3
		c-2.7-1.7-5.7-2.7-8.9-2.9c-1.6-0.1-3.2-0.1-4.8,0.1l-291.9,39.5c-2.2,0.3-4.3,1.2-6.1,2.6c-2,1.5-3.7,3.3-5,5.4
		c-1.5,2.3-2.6,4.8-3.3,7.4c-0.8,2.8-1.2,5.7-1.2,8.7c0,1.4,0.1,2.9,0.3,4.3c0.2,1.3,0.5,2.7,0.9,4c0.4,1.2,0.8,2.5,1.4,3.6
		c0.5,1.1,1.2,2.2,2,3.2c0.7,0.9,1.5,1.8,2.4,2.5c0.8,0.7,1.7,1.3,2.7,1.8C956,284,958.1,284.3,960.1,284.1L960.1,284.1z"/>
	<path class="st1" d="M1089.9,271.4l162.1-16c3.4-0.4,6.6-1.4,9.6-3.1c3-1.8,5.7-4.1,7.9-6.8c4.8-5.8,7.4-13.1,7.4-20.6
		c0-1.8-0.2-3.7-0.5-5.5c-0.3-1.7-0.8-3.4-1.4-5c-0.6-1.6-1.4-3.1-2.3-4.5c-0.9-1.4-2-2.7-3.2-3.9c-1.2-1.1-2.4-2.1-3.8-3
		c-2.7-1.7-5.7-2.7-8.9-2.9c-1.6-0.1-3.2-0.1-4.8,0.1l-162.1,21.9L1089.9,271.4z"/>
	<path class="st2" d="M1090.3,275c0.7-0.1,1.5-0.3,2.1-0.7c0.7-0.4,1.2-1,1.7-1.6c0.5-0.7,0.9-1.5,1.2-2.3c0.3-0.9,0.4-1.8,0.4-2.7
		v-43.1c0-0.9-0.1-1.8-0.4-2.6c-0.3-0.7-0.6-1.4-1.2-2c-0.5-0.5-1.1-1-1.7-1.2c-0.7-0.3-1.4-0.3-2.1-0.2c-0.8,0.1-1.5,0.4-2.1,0.8
		c-0.7,0.5-1.2,1-1.7,1.7c-0.5,0.7-0.9,1.5-1.1,2.3c-0.3,0.9-0.4,1.8-0.4,2.7v42.8c0,0.9,0.1,1.8,0.4,2.6c0.3,0.7,0.6,1.4,1.1,2
		c0.5,0.6,1,1,1.7,1.3C1088.9,275,1089.6,275.1,1090.3,275L1090.3,275z"/>
	<path class="st3" d="M882.2,284.1c-0.3,0-0.6-0.1-0.9-0.1c-0.3-0.1-0.6-0.2-0.8-0.3c-0.3-0.1-0.6-0.2-0.8-0.4
		c-0.3-0.2-0.5-0.3-0.8-0.5c-1.6-1.1-2.7-2.7-3.1-4.6c-0.2-0.6-0.2-1.3-0.2-1.9v-32.4c0-0.6,0.1-1.2,0.2-1.8
		c0.1-0.6,0.4-1.1,0.7-1.6c0.6-1,1.4-1.8,2.5-2.3c0.5-0.2,1.1-0.4,1.6-0.5c0.6-0.1,1.1-0.1,1.7,0c0.6,0.1,1.2,0.2,1.7,0.5
		c0.6,0.2,1.1,0.6,1.6,0.9l25.9,19.2c0.5,0.3,0.9,0.7,1.3,1.2c0.7,0.9,1.3,1.9,1.6,3c0.2,0.5,0.3,1.1,0.3,1.7c0,0,0,0.1,0,0.1
		c0,0,0,0.1,0,0.1v0.3c0,0.6-0.1,1.2-0.2,1.8c-0.1,0.6-0.4,1.1-0.6,1.6c-0.3,0.5-0.6,0.9-1,1.3c-0.4,0.4-0.8,0.7-1.3,1l-25.9,13.2
		c-0.8,0.4-1.6,0.6-2.5,0.6C882.8,284.1,882.5,284.1,882.2,284.1L882.2,284.1z"/>
	<path class="st0" d="M960.1,396.2l291.8,5.5c3.3,0.1,6.6-0.6,9.6-2c3-1.4,5.7-3.4,7.9-5.9c2.3-2.6,4.2-5.6,5.4-8.8
		c2.7-7,2.7-14.8,0-21.8c-1.2-3.3-3.1-6.3-5.4-8.8c-2.2-2.5-4.9-4.5-7.9-5.9c-3-1.4-6.3-2.1-9.6-2l-291.8,5.3
		c-2.2,0.1-4.3,0.7-6.1,1.9c-2,1.2-3.7,2.9-5,4.8c-1.5,2.1-2.6,4.5-3.3,7c-1.6,5.6-1.6,11.5,0,17.1c0.7,2.5,1.9,4.9,3.3,7
		c1.3,1.9,3,3.6,5,4.8C955.8,395.5,957.9,396.1,960.1,396.2L960.1,396.2z"/>
	<path class="st1" d="M1137.9,399.5l114.1,2.1c3.3,0.1,6.6-0.6,9.6-2c3-1.4,5.7-3.4,7.9-5.9c2.3-2.6,4.2-5.6,5.4-8.8
		c1.3-3.5,2-7.2,2-10.9c0-1.8-0.2-3.7-0.5-5.5c-0.3-1.8-0.8-3.5-1.4-5.2c-0.6-1.7-1.4-3.3-2.3-4.8c-0.9-1.5-2-2.9-3.2-4.2
		c-1.2-1.3-2.4-2.4-3.8-3.4c-1.3-1-2.8-1.8-4.3-2.5c-3-1.3-6.2-2-9.4-1.9l-114.1,2.1L1137.9,399.5z"/>
	<path class="st2" d="M1136.5,402.8c0.8,0,1.6-0.2,2.2-0.5c0.7-0.4,1.3-0.9,1.8-1.5c0.5-0.7,1-1.4,1.2-2.2c0.3-0.9,0.5-1.8,0.5-2.7
		v-44.6c0-0.9-0.2-1.9-0.5-2.7c-0.3-0.8-0.7-1.6-1.2-2.2c-0.5-0.6-1.1-1.1-1.8-1.5c-0.7-0.3-1.5-0.5-2.2-0.5c-0.8,0-1.6,0.2-2.2,0.6
		c-0.7,0.4-1.3,0.9-1.8,1.5c-0.5,0.7-1,1.4-1.2,2.3c-0.3,0.9-0.5,1.8-0.5,2.7v44.2c0,0.9,0.2,1.9,0.5,2.7c0.3,0.8,0.7,1.6,1.2,2.3
		c0.5,0.6,1.1,1.2,1.8,1.5C1135,402.5,1135.7,402.7,1136.5,402.8L1136.5,402.8z"/>
	<path class="st3" d="M882.2,392.9c-0.6,0-1.2-0.1-1.7-0.2c-0.3-0.1-0.6-0.2-0.8-0.3c-0.3-0.1-0.5-0.3-0.8-0.4
		c-0.5-0.3-1-0.7-1.4-1.1c-0.4-0.4-0.8-0.9-1.1-1.4c-0.3-0.5-0.5-1.1-0.7-1.7c-0.2-0.6-0.2-1.2-0.2-1.9v-32.4c0-0.6,0.1-1.2,0.2-1.9
		c0.1-0.6,0.4-1.2,0.7-1.7c0.6-1.1,1.4-1.9,2.5-2.5c0.5-0.3,1.1-0.5,1.6-0.7c1.1-0.3,2.3-0.3,3.4,0c0.6,0.2,1.1,0.4,1.6,0.7
		l25.9,16.2l0.1,0.1l0.1,0.1l0.1,0.1l0.1,0.1c0.4,0.3,0.8,0.6,1.1,1c0.3,0.4,0.6,0.8,0.9,1.3c0.2,0.5,0.4,0.9,0.6,1.4
		c0.1,0.5,0.2,1,0.3,1.6v0.5c0,0.6-0.1,1.2-0.2,1.8c-0.1,0.6-0.4,1.1-0.6,1.6c-0.3,0.5-0.6,1-1,1.4c-0.4,0.4-0.9,0.8-1.4,1.1
		l-25.9,16.2c-0.3,0.2-0.5,0.3-0.8,0.4c-0.3,0.1-0.5,0.2-0.8,0.3c-0.3,0.1-0.6,0.1-0.8,0.2C882.8,392.8,882.5,392.9,882.2,392.9
		L882.2,392.9z"/>
	<path class="st0" d="M960.1,510.6l291.9,39.6c6.4,0.9,12.9-1.2,17.5-5.8c2.3-2.3,4.2-5.1,5.4-8.2c1.3-3.4,2-7,2-10.7
		c0-7.5-2.6-14.8-7.4-20.6c-2.2-2.7-4.9-5-7.9-6.8c-2.9-1.7-6.2-2.8-9.6-3.1l-291.9-28.8c-2.1-0.2-4.2,0.2-6.1,1.1
		c-2,1-3.7,2.5-5,4.2c-1.5,2-2.6,4.2-3.3,6.6c-0.8,2.7-1.2,5.5-1.2,8.4c0,2.9,0.4,5.9,1.2,8.7c0.7,2.6,1.9,5.1,3.3,7.4
		c1.3,2.1,3,3.9,5,5.4C955.8,509.3,957.9,510.2,960.1,510.6z"/>
	<path class="st1" d="M1006,516.8l246,33.4c6.4,0.9,12.9-1.2,17.5-5.8c2.3-2.3,4.2-5.1,5.4-8.2c1.3-3.4,2-7,2-10.7
		c0-1.9-0.2-3.7-0.5-5.6c-1-5.5-3.3-10.7-6.9-15c-1.2-1.4-2.4-2.7-3.8-3.9c-1.3-1.1-2.8-2.1-4.3-3c-1.5-0.8-3-1.5-4.6-2
		c-1.6-0.5-3.2-0.8-4.8-1l-246-24.3V516.8z"/>
	<path class="st3" d="M882.2,508.2c-0.3,0-0.6,0.1-0.9,0.1c-0.3,0-0.6,0-0.8-0.1c-0.6-0.1-1.1-0.3-1.6-0.5c-1-0.5-1.9-1.3-2.5-2.3
		c-0.3-0.5-0.5-1-0.7-1.6c-0.2-0.6-0.2-1.2-0.2-1.8v-32.4c0-0.6,0.1-1.3,0.2-1.9c0.5-1.9,1.6-3.5,3.1-4.6c0.5-0.4,1.1-0.7,1.6-0.9
		c0.5-0.2,1.1-0.4,1.7-0.4c0.6-0.1,1.1,0,1.7,0.1c0.6,0.1,1.1,0.3,1.6,0.5l25.9,13.2l0.1,0l0.1,0.1l0.1,0.1l0.1,0.1
		c0.4,0.2,0.8,0.5,1.1,0.8c0.3,0.3,0.6,0.7,0.8,1.1c0.2,0.4,0.4,0.8,0.6,1.3c0.2,0.5,0.3,0.9,0.3,1.4c0,0.1,0,0.1,0,0.2
		c0,0.1,0,0.1,0,0.2c0,0.1,0,0.1,0,0.2c0,0.1,0,0.1,0,0.2c0,0.6-0.1,1.2-0.2,1.8c-0.3,1.2-0.8,2.3-1.6,3.3c-0.4,0.5-0.9,0.9-1.4,1.3
		l-25.9,19.2c-0.3,0.2-0.5,0.4-0.8,0.5c-0.3,0.2-0.5,0.3-0.8,0.4c-0.3,0.1-0.6,0.2-0.8,0.3C882.8,508.1,882.5,508.1,882.2,508.2
		L882.2,508.2z"/>
	<path class="st2" d="M1007.1,519.9c0.6,0.1,1.3,0,1.8-0.2c0.6-0.3,1.1-0.7,1.5-1.2c0.5-0.6,0.8-1.2,1-1.9c0.3-0.8,0.4-1.6,0.4-2.4
		v-40.4c0-0.9-0.1-1.7-0.4-2.5c-0.2-0.8-0.6-1.5-1-2.1c-0.4-0.6-0.9-1.1-1.5-1.5c-0.5-0.4-1.2-0.6-1.8-0.7c-0.6-0.1-1.3,0.1-1.8,0.3
		c-0.6,0.3-1.1,0.7-1.5,1.2c-0.4,0.6-0.8,1.2-1,1.9c-0.2,0.8-0.4,1.6-0.4,2.4v40.1c0,0.9,0.1,1.7,0.4,2.5c0.2,0.8,0.6,1.5,1,2.2
		c0.4,0.6,0.9,1.1,1.5,1.6C1005.8,519.5,1006.5,519.8,1007.1,519.9L1007.1,519.9z"/>
	<path class="st2" d="M603.7,582.5l-42.4,144.9c-4.9,16.8,4.7,34.5,21.6,39.4c2,0.6,4.1,1,6.1,1.2l46.2,4L603.7,582.5z"/>
	<path class="st4" d="M603.7,582.5l-42.4,144.9c-4.9,16.8,4.7,34.5,21.6,39.4c2,0.6,4.1,1,6.1,1.2l46.2,4L603.7,582.5z"/>
	<path class="st5" d="M988.3,555.8l-56.7,93.7l-26.7-33.8l52.2-81.7c-1.9-9.5,0.4-20.5,7-30.1c11.6-16.7,32.2-22.4,46-12.8
		s15.6,30.9,4,47.6C1007.4,548.3,997.9,554.3,988.3,555.8L988.3,555.8z"/>
	<path class="st6" d="M634.9,783.1l-6.8,23.1l0.2,23.5c0,0-44.8,53.9-28.3,170.3l209.8-2.6l-25-187.4L634.9,783.1L634.9,783.1z"/>
	<path class="st5" d="M658.5,462.3c0-32.9,26.6-59.5,59.5-59.5c32.9,0,59.5,26.6,59.5,59.5c0,26-16.9,49-41.7,56.7l-8.9,7.1
		l15.9,55.7L724.3,595l-58.6-48.9c0,0,12.7-16.1,19.5-34.3C668.5,500.8,658.5,482.2,658.5,462.3L658.5,462.3z"/>
	<path class="st2" d="M945.3,552.8c-21-0.3-59.8,67.1-59.8,67.1l-31.9-11.3L788,585.4l-50.3-20.7l0.2,1.5c-0.2-0.5-0.4-1-0.6-1.4
		c-5.3-10.9-20.6-23.7-64.2-21.2l-20.5,16.2l-2.8,2.2c-8.8-0.5-17.6,0.9-25.9,4c-9.3,3.8-18.7,10.8-23.1,23.8
		c-2.3,6.8-2.3,20.7-0.9,38.4C604.8,692.6,628,829,628,829l146.1-19.3l10.8,0.3c0,0,1.3-14.7,2.4-34c0.7-11.3,1.3-24.1,1.7-36.5
		c0.3-9.1,0.3-17.8,0.2-25.6c0-0.5,0-1,0-1.4c-0.4-14.1-1.9-24.3-4.9-25.5c0,0,9.4-0.3,23.1-0.8c32.9-1.2,90.4-4,98.6-8.5
		c11.6-6.3,72.3-90.7,72.3-90.7S966.3,553.2,945.3,552.8L945.3,552.8z"/>
	<path class="st6" d="M691,376.9L691,376.9c3.2,0,6.4,0.3,9.5,0.9c5.6-2.7,11.8-4.2,18.1-4.2h1.6c31.7,0,57.3,28.6,57.3,64h-10.6
		l-1.7-13l-2.5,13h-8.8c2.7,10.5,4.1,21.2,4.1,32.1v65.1h-16l-9.3-24.1l2.3,24.1h-121v-51.1C613.9,424.7,648.4,376.9,691,376.9z"/>
</g>
</svg>
