<?xml version="1.0" encoding="utf-8"?>
<!-- Generator: Adobe Illustrator 25.3.0, SVG Export Plug-In . SVG Version: 6.00 Build 0)  -->
<svg version="1.1" id="Calque_1" xmlns="http://www.w3.org/2000/svg" xmlns:xlink="http://www.w3.org/1999/xlink" x="0px" y="0px"
	 viewBox="0 0 32 32" style="enable-background:new 0 0 32 32;" xml:space="preserve">
<style type="text/css">
	.st0{fill:#211E21;}
	.st1{fill:#58AD32;}
	.st2{fill:#7B93BB;}
</style>
<path class="st0" d="M351,196.6c-0.1-0.1-0.2-0.2-0.2-0.3c0-0.7-0.2-1.5,0-2.2c0.1,0,0.2,0.1,0.2,0.1C351,195,351,195.8,351,196.6z"
	/>
<path class="st0" d="M350.8,201.7c-0.1-0.7,0-1.3,0-2c0-0.1,0.1-0.2,0.2-0.3c0,0.7,0,1.4,0,2.2C350.9,201.7,350.9,201.7,350.8,201.7
	z"/>
<g>
	<path class="st1" d="M0.4,26.7c0-0.1,0-0.1,0-0.2c0-1.8,0-3.5,0-5.3c0-0.1,0-0.2,0-0.2c0,0,0-0.1,0.1-0.1c0.1,0,0.1,0,0.2,0
		c1.2,0,2.5,0,3.7,0c2.9,0,5.9,0,8.8,0c0.1,0,0.1,0,0.2,0c0.1,0,0.1,0,0.1-0.1c0,0,0-0.1,0-0.1c0-1.2,0-2.5,0-3.7c0,0,0-0.1,0-0.1
		c-0.1,0-0.2,0-0.2,0c-1.5,0-3,0-4.5,0c-1.1,0-2.3,0-3.4,0c-0.1,0-0.2,0-0.3,0c0-0.1,0-0.2,0-0.3c0-0.5,0-1,0-1.5c0-0.1,0-0.1,0-0.2
		c0.1,0,0.2,0,0.3,0c1.2,0,2.5,0,3.7,0c0.3,0,0.3,0,0.3-0.3c0-1.1,0-2.1,0-3.2c0-0.1,0-0.1,0-0.2c0-0.1,0-0.1-0.2-0.1
		c-0.1,0-0.1,0-0.2,0c-1.2,0-2.4,0-3.7,0c-0.3,0-0.3,0-0.3-0.3c0-0.5,0-0.9,0-1.4c0,0,0-0.1,0-0.1c0-0.1,0-0.2,0.2-0.2
		c0.1,0,0.1,0,0.2,0c1.3,0,2.6,0,3.9,0c0.2,0,0.2,0,0.2-0.3c0-1.1,0-2.2,0-3.3c0,0,0,0,0-0.1c0-0.2,0-0.2,0.2-0.2c1.8,0,3.6,0,5.5,0
		c0.2,0,0.2,0,0.2,0.2c0,0.1,0,0.1,0,0.2c0,7,0,13.9,0,20.9c0,0.1,0,0.2,0,0.2c0,0,0,0.1-0.1,0.1c0,0-0.1,0-0.1,0
		c-0.1,0-0.1,0-0.2,0c-4.8,0-9.6,0-14.4,0C0.6,26.8,0.5,26.8,0.4,26.7z"/>
	<path class="st2" d="M16.6,16c0-3.5,0-7,0-10.5c0-0.1,0-0.2,0-0.2c0-0.1,0-0.1,0.1-0.1c0.1,0,0.1,0,0.2,0c4.8,0,9.6,0,14.5,0
		c0.3,0,0.3,0,0.3,0.3c0,1.8,0,3.5,0,5.3c0,0.1,0,0.1,0,0.2c0,0.1,0,0.1-0.1,0.1c-0.1,0-0.1,0-0.2,0c-3.9,0-7.7,0-11.6,0
		c-0.1,0-0.1,0-0.2,0c-0.1,0-0.1,0-0.1,0.1c0,0.1,0,0.1,0,0.2c0,1.2,0,2.4,0,3.5c0,0,0,0.1,0,0.1c0,0.1,0,0.2,0.2,0.2
		c0.1,0,0.1,0,0.2,0c2.1,0,4.1,0,6.2,0c0,0,0.1,0,0.1,0c0.1,0,0.2,0,0.2,0c0,0.1-0.1,0.1-0.1,0.2c-0.3,0.3-0.5,0.6-0.8,0.9
		c-0.1,0.1-0.2,0.2-0.3,0.3c-0.2,0.2-0.4,0.5-0.7,0.7c-0.3,0.4-0.7,0.7-1,1.1c-0.3,0.3-0.6,0.6-0.9,1c-0.4,0.5-0.9,0.9-1.3,1.4
		c-0.2,0.3-0.5,0.5-0.8,0.8c-0.2,0.3-0.5,0.5-0.7,0.8c-0.2,0.2-0.4,0.5-0.6,0.7c-0.1,0.1-0.1,0.2-0.1,0.4c0,1,0,2,0,3
		c0,0.1,0,0.2,0,0.3c0,0.1,0,0.1-0.1,0.1c0,0-0.1,0-0.1,0c-0.6,0-1.2,0-1.8,0c0,0-0.1,0-0.1,0c-0.1,0-0.1,0-0.1-0.1
		c0-0.1,0-0.1,0-0.2C16.6,23,16.6,19.5,16.6,16z"/>
	<path class="st2" d="M31.6,19.4c0,1.1,0,2.1,0,3.2c0,0.3,0,0.3-0.2,0.3c-1.9,0-3.9,0-5.8,0c-0.1,0-0.1,0-0.2,0c0,0,0,0,0-0.1
		c0.1-0.1,0.2-0.2,0.3-0.3c0.5-0.5,1-1.1,1.5-1.7c0.3-0.3,0.5-0.6,0.8-0.9c0.3-0.3,0.6-0.6,0.9-0.9c0.3-0.4,0.7-0.8,1-1.1
		c0.3-0.4,0.7-0.7,1-1.1c0.2-0.2,0.4-0.5,0.7-0.7c0,0,0,0,0,0c0,0,0.1-0.1,0.1,0c0,0,0,0,0,0.1c0,0.1,0,0.1,0,0.2
		C31.6,17.2,31.6,18.3,31.6,19.4z"/>
</g>
</svg>
